<?xml version="1.0" encoding="utf-8"?>
<!-- Generator: Adobe Illustrator 19.0.0, SVG Export Plug-In . SVG Version: 6.00 Build 0)  -->
<svg version="1.1" id="Warstwa_1" xmlns="http://www.w3.org/2000/svg" xmlns:xlink="http://www.w3.org/1999/xlink" x="0px" y="0px"
	 viewBox="0 0 300 420" style="enable-background:new 0 0 300 420;" xml:space="preserve">
<style type="text/css">
	.st0{fill:none;stroke:#FFFFFF;stroke-width:2;stroke-miterlimit:10;}
	.st1{fill:none;stroke:#FFFFFF;stroke-width:1.5;stroke-miterlimit:10;}
	.st2{fill:none;stroke:#FFFFFF;stroke-miterlimit:10;}
</style>
<path id="XMLID_1_" class="st0" d="M242,395.7H57.5c-12.1,0-21.9-9.8-21.9-21.9V42.9c0-12.1,9.8-21.9,21.9-21.9H242
	c12.1,0,21.9,9.8,21.9,21.9v330.9C263.9,385.9,254.1,395.7,242,395.7z"/>
<rect id="XMLID_2_" x="44.7" y="54.4" class="st1" width="209.8" height="288.1"/>
<circle id="XMLID_3_" class="st2" cx="150.2" cy="366.4" r="12.9"/>
<path id="XMLID_4_" class="st2" d="M180.1,44.1h-59.8c-0.7,0-1.3-0.6-1.3-1.3v0c0-0.7,0.6-1.3,1.3-1.3h59.8c0.7,0,1.3,0.6,1.3,1.3v0
	C181.4,43.5,180.8,44.1,180.1,44.1z"/>
</svg>
