<?xml version="1.0" encoding="utf-8"?>
<!-- Generator: Adobe Illustrator 19.0.0, SVG Export Plug-In . SVG Version: 6.00 Build 0)  -->
<svg version="1.1" id="Warstwa_1" xmlns="http://www.w3.org/2000/svg" xmlns:xlink="http://www.w3.org/1999/xlink" x="0px" y="0px"
	 viewBox="0 0 200 200" style="enable-background:new 0 0 200 200;" xml:space="preserve">
<style type="text/css">
	.st0{fill:#FFFFFF;}
	.st1{fill:#FFFFFF;stroke:#000000;stroke-width:2;stroke-miterlimit:10;}
</style>
<g id="XMLID_7_">
	<path id="XMLID_10_" class="st0" d="M159,181.2H41c-5.9,0-8.8-5.7-8.8-17.6V82.8l2,0.5v80.4c0,15.6,5.1,15.6,6.8,15.6H159
		c3.8,0,6.8-3.1,6.8-6.8v-89l2-0.5l0,89.5C167.8,177.3,163.8,181.2,159,181.2z"/>
</g>
<g id="XMLID_1_">
	<path class="st1" d="M158.7,83.4"/>
</g>
<g id="XMLID_5_">
	
		<rect id="XMLID_9_" x="33.2" y="82.3" transform="matrix(1 1.268733e-003 -1.268733e-003 1 0.1058 -0.1268)" class="st0" width="133.5" height="2"/>
</g>
<g id="XMLID_2_">
	<polygon id="XMLID_8_" class="st0" points="100,144.2 32.6,91.5 33.8,89.9 100,141.7 166.2,89.9 167.4,91.5 	"/>
</g>
<g id="XMLID_3_">
	<polygon id="XMLID_6_" class="st0" points="166.2,84.2 100,33.9 33.8,84.1 32.2,82.8 100,31.4 167.7,82.9 	"/>
</g>
</svg>
