<?xml version="1.0" encoding="utf-8"?>
<!-- Generator: Adobe Illustrator 19.0.0, SVG Export Plug-In . SVG Version: 6.00 Build 0)  -->
<svg version="1.1" id="Warstwa_1" xmlns="http://www.w3.org/2000/svg" xmlns:xlink="http://www.w3.org/1999/xlink" x="0px" y="0px"
	 viewBox="0 0 900 300" style="enable-background:new 0 0 900 300;" xml:space="preserve">
<style type="text/css">
	.st0{fill:none;stroke:#000000;stroke-width:4;stroke-miterlimit:10;}
</style>
<g id="XMLID_303_">
	<path id="XMLID_320_" class="st0" d="M170.3,239.9l-28.1,4.8c-71.9,11.8-128.8-27.4-128.4-94c0.5-56.2,44-96.2,113.5-90.9l31.2,2.4
		l1.2,38.2c-6.7-6-24.8-14.7-43.5-14.2c-45.4,1.2-48.1,38.7-48.3,65.4c-0.2,33.7,16.3,66.3,57.2,65.9c15.6-0.2,25-2.4,39.2-8.7
		l19.5-8.2L170.3,239.9z"/>
	<path id="XMLID_317_" class="st0" d="M348.2,241.1c-8.9,0-26.4,4.8-38.2-1.2c-8.9-4.6-14.7-16.8-16.1-19.7l-29.8-56v46.9
		c0,7.9-0.5,13.7,2.9,20.4c2.2,4.8,4.8,7.2,9.1,10.1h-76c1.9-1.4,3.4-2.2,5-3.8c6-5.5,8.2-11.5,8.2-19.7l-0.2-138.5
		c0-0.7-2.6-11.3-5.3-14.9c-1.9-2.4-3.4-3.6-6-5.3H290c39.4,0,54.6,25.2,54.3,51c-0.7,28.8-29.8,40.9-31,41.3l-2.2,1l4.6,7.5
		c18.3,29.3,23.1,41.1,35.6,59.6c6.3,8.9,11.3,14.2,19.2,21.6L348.2,241.1z M271.5,87.8h-7.5v61.8c11.8-1,28.6-13,29.3-32.2
		C293.9,101,286.4,87.8,271.5,87.8z"/>
	<path id="XMLID_315_" class="st0" d="M398.4,241.4c2.4-1.2,3.8-2.2,5.8-4.1c5.5-5.3,7-11.3,7-19V80.1c0-0.7-1-8.4-3.6-12
		c-2.9-3.8-4.8-6.2-9.4-8.7h77.2c-4.1,2.4-5.8,5.3-8.7,8.9c-2.6,3.6-3.8,11.1-3.8,11.8v132.2c0,7.9-0.7,14.2,3.6,20.7
		c2.4,3.8,4.8,6,8.9,8.4H398.4z"/>
	<path id="XMLID_313_" class="st0" d="M661.2,241.4c4.1-1.7,6.5-3.8,8.2-7.5c2.2-4.6,2.9-7.9,2.4-12.7l-9.9-97.4l-37.5,121.6
		c-10.8-2.6-16.8-6.5-25.7-13c-6.2-4.8-13.2-12-16.8-22.4l-32.9-88L539.3,225c-0.5,5,2.6,7.9,6.2,11.3c2.4,2.4,4.3,3.6,7.7,5h-57.4
		c3.4-2.4,5-4.3,7.5-7.5c3.8-5.8,5-9.6,6-16.3l15.4-132c0.7-6,0-9.6-2.4-14.9c-1.9-5.3-4.3-7.9-8.4-11.3H578l41.1,107l32.9-107h67.5
		c-4.3,1.9-7,3.4-9.4,7.7c-2.4,4.1-2.9,7.5-2.2,12.5l16.8,141.6c0.2,4.8,0,8.2,2.2,12.7c1.7,3.6,4.3,5.8,8.2,7.5H661.2z"/>
	<path id="XMLID_311_" class="st0" d="M874.6,241.4H751c2.9-1.4,4.6-2.2,6.7-4.6c5.3-5.8,6.5-11.5,6.5-19V80.1
		c0-0.7-1.2-8.2-3.6-11.8c-2.9-3.6-5-6.5-8.9-8.9h103.1c1.4,0,2.6,0.2,4.1-0.2c1.2-0.2,1.9-0.5,2.9-1.2v42.3
		c-1.7-3.8-3.4-5.8-6.7-8.2c-4.1-2.9-10.6-4.3-12.3-4.3h-27.4v44.5h26.4c2.6,0,4.6,0.2,7.2-0.5c1.2-0.5,2.4-1,3.6-1.4v41.3
		c-1.4-4.1-3.4-6.5-7-8.9c-4.1-2.9-10.6-3.4-12.3-3.4h-18.3v52.2c7.9,3.1,23.8,5.5,35.8,4.3c21.9-2.6,23.8-6.5,35.1-16.6
		L874.6,241.4z"/>
</g>
</svg>
