<?xml version="1.0" encoding="utf-8"?>
<!-- Generator: Adobe Illustrator 19.0.0, SVG Export Plug-In . SVG Version: 6.00 Build 0)  -->
<svg version="1.1" id="Warstwa_1" xmlns="http://www.w3.org/2000/svg" xmlns:xlink="http://www.w3.org/1999/xlink" x="0px" y="0px"
	 viewBox="0 0 600 180" style="enable-background:new 0 0 600 180;" xml:space="preserve">
<g id="XMLID_303_">
	<path id="XMLID_320_" d="M74.6,111.3l-11.6,2c-29.6,4.8-53-11.3-52.8-38.7c0.2-23.1,18.1-39.5,46.7-37.4l12.9,1L70.2,54
		c-2.8-2.5-10.2-6-17.9-5.8C33.6,48.6,32.5,64,32.4,75c-0.1,13.8,6.7,27.3,23.5,27.1c6.4-0.1,10.3-1,16.1-3.6l8-3.4L74.6,111.3z"/>
	<path id="XMLID_317_" d="M147.7,111.8c-3.7,0-10.9,2-15.7-0.5c-3.7-1.9-6-6.9-6.6-8.1l-12.3-23v19.3c0,3.3-0.2,5.6,1.2,8.4
		c0.9,2,2,3,3.8,4.2H86.8c0.8-0.6,1.4-0.9,2.1-1.6c2.5-2.3,3.4-4.7,3.4-8.1l-0.1-56.9c0-0.3-1.1-4.6-2.2-6.1c-0.8-1-1.4-1.5-2.5-2.2
		h36.3c16.2,0,22.4,10.4,22.3,21c-0.3,11.9-12.3,16.8-12.8,17l-0.9,0.4l1.9,3.1c7.5,12.1,9.5,16.9,14.6,24.5
		c2.6,3.7,4.6,5.8,7.9,8.9L147.7,111.8z M116.2,48.7h-3.1v25.4c4.8-0.4,11.8-5.3,12.1-13.2C125.4,54.2,122.3,48.7,116.2,48.7z"/>
	<path id="XMLID_315_" d="M168.4,111.9c1-0.5,1.6-0.9,2.4-1.7c2.3-2.2,2.9-4.6,2.9-7.8V45.5c0-0.3-0.4-3.5-1.5-4.9
		c-1.2-1.6-2-2.6-3.9-3.6H200c-1.7,1-2.4,2.2-3.6,3.7c-1.1,1.5-1.6,4.5-1.6,4.8v54.4c0,3.3-0.3,5.8,1.5,8.5c1,1.6,2,2.5,3.7,3.5
		H168.4z"/>
	<path id="XMLID_313_" d="M276.4,111.9c1.7-0.7,2.7-1.6,3.4-3.1c0.9-1.9,1.2-3.3,1-5.2l-4.1-40l-15.4,50c-4.4-1.1-6.9-2.7-10.6-5.3
		c-2.6-2-5.4-4.9-6.9-9.2l-13.5-36.2l-4,42.3c-0.2,2.1,1.1,3.3,2.6,4.6c1,1,1.8,1.5,3.2,2.1h-23.6c1.4-1,2.1-1.8,3.1-3.1
		c1.6-2.4,2.1-4,2.5-6.7l6.3-54.3c0.3-2.5,0-4-1-6.1c-0.8-2.2-1.8-3.3-3.5-4.6h26.4l16.9,44l13.5-44h27.8c-1.8,0.8-2.9,1.4-3.9,3.2
		c-1,1.7-1.2,3.1-0.9,5.1l6.9,58.2c0.1,2,0,3.4,0.9,5.2c0.7,1.5,1.8,2.4,3.4,3.1H276.4z"/>
	<path id="XMLID_311_" d="M364.2,111.9h-50.8c1.2-0.6,1.9-0.9,2.8-1.9c2.2-2.4,2.7-4.7,2.7-7.8V45.5c0-0.3-0.5-3.4-1.5-4.8
		c-1.2-1.5-2.1-2.7-3.7-3.7h42.4c0.6,0,1.1,0.1,1.7-0.1c0.5-0.1,0.8-0.2,1.2-0.5v17.4c-0.7-1.6-1.4-2.4-2.8-3.4
		c-1.7-1.2-4.4-1.8-5-1.8h-11.3V67h10.9c1.1,0,1.9,0.1,3-0.2c0.5-0.2,1-0.4,1.5-0.6v17c-0.6-1.7-1.4-2.7-2.9-3.7
		c-1.7-1.2-4.4-1.4-5-1.4h-7.5v21.5c3.3,1.3,9.8,2.3,14.7,1.8c9-1.1,9.8-2.7,14.4-6.8L364.2,111.9z"/>
	<path id="XMLID_309_" d="M470.3,111.3l-11.6,2c-29.6,4.8-53-11.3-52.8-38.7c0.2-23.1,18.1-39.5,46.7-37.4l12.9,1l0.5,15.7
		c-2.8-2.5-10.2-6-17.9-5.8C429.4,48.6,428.3,64,428.2,75c-0.1,13.8,6.7,27.3,23.5,27.1c6.4-0.1,10.3-1,16.1-3.6l8-3.4L470.3,111.3z
		"/>
	<path id="XMLID_306_" d="M522.1,114c-24.4,0-39.9-17.9-39.9-38.6c0-22,17.3-39.3,42.3-39.3c23.9,0,41.6,14.8,41.6,37.3
		C566.1,98.9,547.8,114,522.1,114z M522.9,47.3c-12.7,0-19,11.3-19,24.6c0,15.1,7.7,30.7,20.6,30.7c14,0,19.4-11.7,19.4-24.1
		C543.8,63.3,537.8,47.3,522.9,47.3z"/>
	<path id="XMLID_304_" d="M580.4,96.1c10.6-1.5,12.7,14.3,2.2,15.8C572,113.4,569.8,97.5,580.4,96.1z"/>
</g>
<g id="XMLID_175_">
	<path id="XMLID_467_" d="M33.8,146.8H12v-1.3c0.1,0,0.4,0,0.6,0c0.3,0,0.5,0,0.8-0.1c0.3,0,0.5-0.1,0.8-0.1c0.2,0,0.4-0.1,0.5-0.1
		c0.4-0.1,0.7-0.4,0.8-0.7c0.1-0.3,0.2-0.7,0.2-1.1v-18.8c0-0.4-0.1-0.8-0.2-1.1c-0.1-0.3-0.4-0.5-0.8-0.7c-0.2-0.1-0.4-0.2-0.7-0.2
		c-0.3-0.1-0.5-0.1-0.8-0.2c-0.3-0.1-0.5-0.1-0.7-0.1c-0.2,0-0.4-0.1-0.6-0.1v-1.3h20.3v6.1H31c-0.1-0.6-0.3-1.2-0.5-1.7
		c-0.2-0.5-0.4-1-0.7-1.4c-0.3-0.4-0.6-0.7-1-1c-0.4-0.2-0.9-0.4-1.4-0.4c-0.5,0-1-0.1-1.6-0.1c-0.6,0-1.2,0-1.9,0h-5.5v10.4h4.3
		c0.6,0,1.1,0,1.5-0.1c0.4-0.1,0.7-0.2,0.9-0.3c0.2-0.1,0.4-0.2,0.6-0.4c0.1-0.1,0.3-0.3,0.4-0.4c0.1-0.2,0.2-0.4,0.3-0.6
		c0.1-0.2,0.2-0.5,0.3-0.8c0.1-0.3,0.1-0.5,0.2-0.8s0.1-0.5,0.1-0.8h1.2v9.8H27c0-0.3,0-0.6-0.1-0.9c-0.1-0.3-0.1-0.6-0.2-0.9
		c-0.1-0.3-0.2-0.6-0.3-0.8c-0.1-0.2-0.2-0.4-0.3-0.6c-0.1-0.1-0.2-0.3-0.4-0.4c-0.1-0.1-0.3-0.3-0.6-0.4c-0.2-0.1-0.6-0.2-0.9-0.3
		c-0.4-0.1-0.9-0.1-1.5-0.1h-4.3v7.9c0,0.8,0.1,1.4,0.2,1.8c0.1,0.4,0.4,0.8,0.8,1c0.4,0.2,1,0.4,1.7,0.4c0.8,0.1,1.7,0.1,3,0.1
		c0.5,0,1.1,0,1.8,0c0.6,0,1.3-0.1,1.9-0.1c0.6-0.1,1.2-0.2,1.7-0.3c0.5-0.1,0.9-0.3,1.1-0.5c0.2-0.2,0.5-0.5,0.7-0.9
		s0.4-0.8,0.6-1.3c0.2-0.5,0.4-0.9,0.6-1.4c0.2-0.5,0.3-0.9,0.4-1.4h1.4L33.8,146.8z"/>
	<path id="XMLID_469_" d="M54.8,139.5c0,1.1-0.2,2.2-0.7,3.1c-0.4,0.9-1,1.8-1.8,2.4c-0.8,0.7-1.7,1.2-2.8,1.6
		c-1.1,0.4-2.2,0.6-3.5,0.6c-1.2,0-2.4-0.1-3.6-0.4c-1.1-0.3-2.1-0.7-3-1.3l-0.6,1.3h-1.3l-0.3-8.6h1.3c0.2,1.1,0.5,2.1,0.9,3.1
		c0.4,0.9,0.9,1.7,1.5,2.4c0.6,0.7,1.4,1.2,2.3,1.6c0.9,0.4,2,0.6,3.2,0.6c2,0,3.4-0.5,4.4-1.4c1-0.9,1.4-2.2,1.4-3.8
		c0-1.1-0.3-2.1-0.9-2.9c-0.6-0.8-1.4-1.4-2.4-1.9c-0.7-0.3-1.2-0.5-1.7-0.6c-0.5-0.2-0.9-0.3-1.3-0.5c-0.4-0.2-0.9-0.3-1.4-0.5
		c-0.5-0.2-1.1-0.4-1.7-0.7c-0.7-0.3-1.4-0.7-2-1.1c-0.6-0.4-1.1-0.8-1.5-1.3c-0.4-0.5-0.8-1.1-1-1.8c-0.2-0.7-0.4-1.4-0.4-2.3
		c0-1,0.2-1.9,0.6-2.7s1-1.5,1.7-2.1c0.7-0.6,1.5-1,2.4-1.4c0.9-0.3,1.8-0.5,2.8-0.5c1.4,0,2.6,0.2,3.6,0.5c1,0.3,1.9,0.8,2.7,1.3
		l0.6-1.3h1.2l0.2,8.5h-1.3c-0.2-1-0.5-2-0.9-2.9c-0.3-0.9-0.8-1.7-1.3-2.4c-0.6-0.7-1.2-1.2-2.1-1.6c-0.8-0.4-1.9-0.6-3.1-0.6
		c-0.7,0-1.3,0.1-1.9,0.3c-0.6,0.2-1.1,0.5-1.5,0.8c-0.4,0.4-0.8,0.8-1,1.3c-0.3,0.5-0.4,1.1-0.4,1.7c0,1.1,0.2,2,0.7,2.7
		c0.5,0.7,1.1,1.3,2,1.7c0.5,0.3,1,0.5,1.5,0.7c0.5,0.2,0.9,0.4,1.4,0.5c0.4,0.2,0.9,0.3,1.4,0.5c0.5,0.2,0.9,0.3,1.4,0.5
		c0.8,0.3,1.6,0.7,2.4,1.1c0.7,0.4,1.4,0.8,2,1.3c0.6,0.5,1,1.1,1.3,1.8C54.7,137.6,54.8,138.5,54.8,139.5z"/>
	<path id="XMLID_471_" d="M78.8,127.7c-0.1-0.8-0.2-1.5-0.3-2.1c-0.2-0.6-0.4-1.2-0.7-1.6c-0.3-0.5-0.7-0.8-1.2-1.1
		c-0.5-0.3-1.1-0.5-1.8-0.5c-0.2,0-0.5-0.1-0.8-0.1c-0.3,0-0.6,0-0.8,0c-0.3,0-0.5,0-0.8,0c-0.3,0-0.5,0-0.7,0h-2v20.9
		c0,0.4,0.1,0.8,0.3,1.1c0.2,0.3,0.5,0.6,0.9,0.8c0.1,0,0.3,0.1,0.6,0.1c0.3,0.1,0.6,0.1,0.9,0.2c0.3,0.1,0.7,0.1,1,0.1
		c0.3,0,0.6,0.1,0.7,0.1v1.3H62.7v-1.3c0.2,0,0.4,0,0.7,0c0.3,0,0.6-0.1,0.9-0.1c0.3,0,0.6-0.1,0.9-0.1c0.3,0,0.5-0.1,0.6-0.1
		c0.4-0.2,0.7-0.4,0.9-0.7c0.2-0.3,0.3-0.7,0.3-1.1v-21.1h-2c-0.2,0-0.4,0-0.6,0c-0.3,0-0.5,0-0.8,0c-0.3,0-0.6,0-0.9,0
		c-0.3,0-0.6,0-0.8,0.1c-0.7,0.1-1.3,0.3-1.8,0.6c-0.5,0.3-0.9,0.8-1.2,1.2c-0.3,0.5-0.6,1.1-0.7,1.7c-0.2,0.6-0.3,1.2-0.3,1.8h-1.3
		v-6.8h23.5v6.8H78.8z"/>
	<path id="XMLID_473_" d="M95.9,146.8v-1.3c0.3,0,0.6,0,1-0.1c0.4,0,0.7-0.1,1.1-0.2c0.3-0.1,0.6-0.2,0.8-0.3
		c0.2-0.1,0.3-0.3,0.3-0.5c0-0.1,0-0.3-0.1-0.5c0-0.2-0.1-0.5-0.3-0.8l-2-5.6H86.6c-0.1,0.4-0.3,0.8-0.5,1.2
		c-0.2,0.4-0.4,0.9-0.5,1.3c-0.2,0.4-0.3,0.8-0.4,1.1c-0.1,0.3-0.2,0.6-0.3,0.7c-0.1,0.3-0.2,0.6-0.3,0.9c-0.1,0.3-0.1,0.6-0.1,1
		c0,0.3,0.1,0.5,0.3,0.7c0.2,0.2,0.5,0.4,0.8,0.5s0.7,0.2,1.2,0.3c0.5,0.1,0.9,0.1,1.4,0.1v1.3h-9.6v-1.3c0.3,0,0.7-0.1,1.1-0.2
		c0.4-0.1,0.8-0.3,1.2-0.5c0.2-0.1,0.4-0.2,0.5-0.4c0.1-0.1,0.3-0.3,0.4-0.5c0.1-0.2,0.3-0.4,0.4-0.7c0.1-0.3,0.3-0.6,0.5-0.9
		c0.7-1.5,1.4-3.1,2.3-4.8c0.8-1.8,1.6-3.6,2.5-5.5c0.9-1.9,1.7-3.8,2.6-5.8c0.9-2,1.7-3.9,2.5-5.8h0.4c0.1,0.4,0.4,1,0.7,1.8
		c0.3,0.8,0.7,1.8,1.1,2.8c0.4,1.1,0.9,2.2,1.3,3.5c0.5,1.2,1,2.5,1.5,3.7c0.5,1.3,1,2.5,1.4,3.7c0.5,1.2,0.9,2.2,1.3,3.2
		c0.4,1,0.7,1.8,0.9,2.4c0.3,0.6,0.4,1,0.5,1.2c0.2,0.5,0.4,0.9,0.6,1.2c0.2,0.3,0.5,0.6,0.9,0.9c0.1,0.1,0.3,0.2,0.5,0.2
		c0.2,0.1,0.4,0.1,0.6,0.2c0.2,0,0.4,0.1,0.6,0.1c0.2,0,0.4,0,0.5,0v1.3H95.9z M92.1,125.4l-4.7,10.8h8.9L92.1,125.4z"/>
	<path id="XMLID_476_" d="M127.3,139.8c0,0.9-0.2,1.8-0.6,2.7c-0.4,0.8-1,1.6-1.7,2.2c-0.8,0.7-1.7,1.2-2.9,1.5s-2.5,0.6-3.9,0.6
		h-11.4v-1.3c0.2,0,0.3,0,0.6,0c0.2,0,0.5,0,0.7-0.1c0.3,0,0.5-0.1,0.7-0.1c0.2,0,0.4-0.1,0.5-0.2c0.4-0.2,0.6-0.4,0.8-0.7
		c0.2-0.3,0.2-0.6,0.2-1v-18.8c0-0.4-0.1-0.8-0.2-1.1c-0.2-0.3-0.4-0.6-0.8-0.8c-0.2-0.1-0.4-0.2-0.6-0.2c-0.2-0.1-0.4-0.1-0.6-0.2
		c-0.2,0-0.4-0.1-0.6-0.1c-0.2,0-0.4,0-0.5,0v-1.3h11.3c0.9,0,1.8,0.1,2.7,0.3c0.9,0.2,1.7,0.6,2.4,1s1.3,1,1.8,1.7
		c0.4,0.7,0.7,1.5,0.7,2.5c0,0.9-0.2,1.8-0.5,2.5c-0.3,0.7-0.8,1.3-1.3,1.9c-0.6,0.5-1.2,0.9-1.9,1.3c-0.7,0.3-1.4,0.6-2.2,0.7v0.1
		c0.4,0.1,0.9,0.2,1.5,0.3c0.5,0.1,1.1,0.3,1.6,0.5c0.6,0.2,1.1,0.5,1.6,0.9c0.5,0.3,1,0.8,1.4,1.2c0.4,0.5,0.7,1,1,1.7
		C127.1,138.2,127.3,138.9,127.3,139.8z M124,139.2c0-0.7-0.1-1.4-0.4-2.1c-0.3-0.7-0.7-1.2-1.3-1.7c-0.6-0.5-1.3-0.9-2.1-1.2
		c-0.8-0.3-1.8-0.4-2.9-0.4c-0.9,0-1.8,0-2.5,0c-0.8,0-1.4,0-1.9,0.1v9c-0.1,0.9,0.3,1.6,1,2c0.7,0.4,1.8,0.6,3.3,0.6
		c2.4,0,4.1-0.5,5.2-1.6C123.5,142.8,124,141.2,124,139.2z M122.6,126.8c0-1.6-0.5-2.7-1.4-3.4c-0.9-0.7-2.3-1.1-4.3-1.1
		c-0.2,0-0.5,0-0.8,0c-0.3,0-0.7,0-1.1,0c-0.4,0-0.8,0-1.1,0c-0.4,0-0.7,0-1.1,0v10.1h3.5c1.2,0,2.2-0.1,3-0.4
		c0.8-0.3,1.4-0.7,1.9-1.2c0.5-0.5,0.8-1.1,1-1.8C122.5,128.3,122.6,127.6,122.6,126.8z"/>
	<path id="XMLID_480_" d="M151.3,146.8h-20.1v-1.3c0.1,0,0.3,0,0.5,0c0.2,0,0.5,0,0.7-0.1c0.2,0,0.5-0.1,0.7-0.1
		c0.2,0,0.4-0.1,0.5-0.1c0.4-0.2,0.7-0.4,0.8-0.7c0.1-0.3,0.2-0.7,0.2-1.1v-18.6c0-0.4-0.1-0.8-0.2-1.1c-0.1-0.3-0.4-0.6-0.8-0.8
		c-0.1-0.1-0.3-0.1-0.5-0.2c-0.2-0.1-0.4-0.2-0.7-0.2c-0.2-0.1-0.5-0.1-0.7-0.2c-0.2,0-0.4-0.1-0.5-0.1v-1.3h9.6v1.3
		c-0.2,0-0.3,0-0.5,0c-0.2,0-0.4,0.1-0.7,0.1c-0.2,0-0.5,0.1-0.7,0.1c-0.2,0-0.4,0.1-0.6,0.1c-0.4,0.2-0.7,0.4-0.8,0.8
		c-0.1,0.3-0.2,0.7-0.2,1.1V142c0,0.8,0,1.4,0.1,1.9c0.1,0.4,0.2,0.8,0.5,1c0.3,0.2,0.7,0.4,1.3,0.4c0.6,0.1,1.3,0.1,2.3,0.1
		c0.6,0,1.3,0,2-0.1c0.7,0,1.3-0.1,1.9-0.2c0.6-0.1,1.2-0.2,1.6-0.3c0.5-0.1,0.8-0.3,1-0.5c0.3-0.3,0.6-0.6,0.8-1
		c0.3-0.4,0.5-0.9,0.7-1.3c0.2-0.5,0.4-0.9,0.6-1.4c0.2-0.5,0.3-0.9,0.4-1.3h1.4L151.3,146.8z"/>
	<path id="XMLID_482_" d="M153.5,146.8v-1.3c0.2,0,0.4,0,0.7,0c0.3,0,0.5,0,0.8-0.1c0.3,0,0.5-0.1,0.8-0.1c0.2,0,0.4-0.1,0.5-0.1
		c0.5-0.1,0.8-0.4,1-0.7c0.2-0.3,0.2-0.7,0.2-1v-18.9c0-0.4-0.1-0.8-0.2-1.1c-0.2-0.3-0.5-0.5-1-0.7c-0.2-0.1-0.4-0.1-0.6-0.2
		c-0.2-0.1-0.5-0.1-0.7-0.2c-0.3-0.1-0.5-0.1-0.7-0.1c-0.2,0-0.4-0.1-0.6-0.1v-1.3h10.6v1.3c-0.2,0-0.4,0-0.6,0.1
		c-0.2,0-0.5,0.1-0.8,0.1c-0.3,0-0.5,0.1-0.8,0.1c-0.2,0.1-0.5,0.1-0.6,0.2c-0.5,0.1-0.8,0.4-0.9,0.7c-0.2,0.3-0.3,0.7-0.3,1.1v18.8
		c0,0.4,0.1,0.8,0.3,1.1c0.2,0.3,0.5,0.6,0.9,0.8c0.2,0.1,0.4,0.1,0.6,0.2c0.2,0.1,0.5,0.1,0.7,0.1c0.3,0,0.5,0.1,0.8,0.1
		c0.3,0,0.5,0,0.7,0v1.3H153.5z"/>
	<path id="XMLID_484_" d="M185.1,139.5c0,1.1-0.2,2.2-0.7,3.1c-0.4,0.9-1,1.8-1.8,2.4c-0.8,0.7-1.7,1.2-2.8,1.6
		c-1.1,0.4-2.2,0.6-3.5,0.6c-1.2,0-2.4-0.1-3.6-0.4c-1.1-0.3-2.1-0.7-3-1.3l-0.6,1.3h-1.3l-0.3-8.6h1.3c0.2,1.1,0.5,2.1,0.9,3.1
		c0.4,0.9,0.9,1.7,1.5,2.4c0.6,0.7,1.4,1.2,2.3,1.6c0.9,0.4,2,0.6,3.2,0.6c2,0,3.4-0.5,4.4-1.4c1-0.9,1.4-2.2,1.4-3.8
		c0-1.1-0.3-2.1-0.9-2.9c-0.6-0.8-1.4-1.4-2.4-1.9c-0.7-0.3-1.2-0.5-1.7-0.6c-0.5-0.2-0.9-0.3-1.3-0.5c-0.4-0.2-0.9-0.3-1.4-0.5
		c-0.5-0.2-1.1-0.4-1.7-0.7c-0.7-0.3-1.4-0.7-2-1.1c-0.6-0.4-1.1-0.8-1.5-1.3c-0.4-0.5-0.8-1.1-1-1.8c-0.2-0.7-0.4-1.4-0.4-2.3
		c0-1,0.2-1.9,0.6-2.7s1-1.5,1.7-2.1c0.7-0.6,1.5-1,2.4-1.4c0.9-0.3,1.8-0.5,2.8-0.5c1.4,0,2.6,0.2,3.6,0.5c1,0.3,1.9,0.8,2.7,1.3
		l0.6-1.3h1.2l0.2,8.5h-1.3c-0.2-1-0.5-2-0.9-2.9c-0.3-0.9-0.8-1.7-1.3-2.4c-0.6-0.7-1.2-1.2-2.1-1.6c-0.8-0.4-1.9-0.6-3.1-0.6
		c-0.7,0-1.3,0.1-1.9,0.3c-0.6,0.2-1.1,0.5-1.5,0.8c-0.4,0.4-0.8,0.8-1,1.3c-0.3,0.5-0.4,1.1-0.4,1.7c0,1.1,0.2,2,0.7,2.7
		c0.5,0.7,1.1,1.3,2,1.7c0.5,0.3,1,0.5,1.5,0.7c0.5,0.2,0.9,0.4,1.4,0.5c0.4,0.2,0.9,0.3,1.4,0.5c0.5,0.2,0.9,0.3,1.4,0.5
		c0.8,0.3,1.6,0.7,2.4,1.1c0.7,0.4,1.4,0.8,2,1.3c0.6,0.5,1,1.1,1.3,1.8C185,137.6,185.1,138.5,185.1,139.5z"/>
	<path id="XMLID_486_" d="M205.7,146.8v-1.3c0.1,0,0.3,0,0.6,0c0.2,0,0.5,0,0.7-0.1c0.3,0,0.5-0.1,0.7-0.1c0.2,0,0.4-0.1,0.6-0.1
		c0.3-0.1,0.5-0.3,0.6-0.6c0.1-0.3,0.2-0.7,0.2-1.1v-9.4h-14.2v9.1c0,0.4,0.1,0.8,0.2,1.1c0.1,0.3,0.3,0.5,0.7,0.7
		c0.1,0.1,0.3,0.1,0.5,0.2c0.2,0.1,0.4,0.1,0.6,0.1c0.2,0,0.5,0.1,0.7,0.1c0.2,0,0.4,0.1,0.6,0.1v1.3h-9.4v-1.3c0.2,0,0.3,0,0.6,0
		c0.2,0,0.5,0,0.7-0.1c0.2,0,0.5-0.1,0.7-0.1c0.2,0,0.4-0.1,0.6-0.1c0.3-0.1,0.5-0.4,0.7-0.7c0.1-0.3,0.2-0.7,0.2-1v-18.9
		c0-0.4-0.1-0.8-0.3-1.1c-0.2-0.3-0.4-0.6-0.8-0.7c-0.1-0.1-0.3-0.1-0.5-0.2c-0.2-0.1-0.4-0.1-0.6-0.2c-0.2-0.1-0.4-0.1-0.6-0.1
		c-0.2,0-0.4-0.1-0.5-0.1v-1.3h9.4v1.3c-0.4,0-0.8,0.1-1.2,0.2c-0.4,0.1-0.8,0.2-1.1,0.3c-0.4,0.1-0.7,0.4-0.8,0.7
		c-0.1,0.3-0.2,0.7-0.2,1.1v8.2h14.2v-8c0-0.4-0.1-0.8-0.2-1.1c-0.1-0.3-0.4-0.6-0.8-0.7c-0.1,0-0.3-0.1-0.5-0.2
		c-0.2-0.1-0.4-0.1-0.6-0.2c-0.2-0.1-0.4-0.1-0.7-0.1c-0.2,0-0.4-0.1-0.6-0.1v-1.3h9.4v1.3c-0.1,0-0.3,0-0.5,0.1
		c-0.2,0-0.4,0.1-0.6,0.1c-0.2,0-0.4,0.1-0.6,0.1c-0.2,0.1-0.4,0.1-0.5,0.2c-0.4,0.1-0.7,0.4-0.8,0.7c-0.2,0.3-0.2,0.7-0.2,1.3v18.6
		c0,0.5,0.1,0.8,0.2,1.1c0.1,0.3,0.3,0.5,0.6,0.7c0.1,0.1,0.3,0.1,0.5,0.2c0.2,0.1,0.4,0.1,0.6,0.2c0.2,0,0.5,0.1,0.7,0.1
		c0.2,0,0.4,0.1,0.6,0.1v1.3H205.7z"/>
	<path id="XMLID_488_" d="M240.9,146.8h-21.8v-1.3c0.1,0,0.4,0,0.6,0c0.3,0,0.5,0,0.8-0.1c0.3,0,0.5-0.1,0.8-0.1
		c0.2,0,0.4-0.1,0.5-0.1c0.4-0.1,0.7-0.4,0.8-0.7c0.1-0.3,0.2-0.7,0.2-1.1v-18.8c0-0.4-0.1-0.8-0.2-1.1s-0.4-0.5-0.8-0.7
		c-0.2-0.1-0.4-0.2-0.7-0.2c-0.3-0.1-0.5-0.1-0.8-0.2c-0.3-0.1-0.5-0.1-0.7-0.1c-0.2,0-0.4-0.1-0.6-0.1v-1.3h20.3v6.1h-1.2
		c-0.1-0.6-0.3-1.2-0.5-1.7c-0.2-0.5-0.4-1-0.7-1.4c-0.3-0.4-0.6-0.7-1-1c-0.4-0.2-0.9-0.4-1.4-0.4c-0.5,0-1-0.1-1.6-0.1
		c-0.6,0-1.2,0-1.9,0h-5.5v10.4h4.3c0.6,0,1.1,0,1.5-0.1c0.4-0.1,0.7-0.2,0.9-0.3c0.2-0.1,0.4-0.2,0.6-0.4c0.1-0.1,0.3-0.3,0.4-0.4
		c0.1-0.2,0.2-0.4,0.3-0.6c0.1-0.2,0.2-0.5,0.3-0.8c0.1-0.3,0.1-0.5,0.2-0.8c0.1-0.3,0.1-0.5,0.1-0.8h1.2v9.8h-1.2
		c0-0.3,0-0.6-0.1-0.9c-0.1-0.3-0.1-0.6-0.2-0.9c-0.1-0.3-0.2-0.6-0.3-0.8c-0.1-0.2-0.2-0.4-0.3-0.6c-0.1-0.1-0.2-0.3-0.4-0.4
		c-0.1-0.1-0.3-0.3-0.6-0.4c-0.2-0.1-0.6-0.2-0.9-0.3c-0.4-0.1-0.9-0.1-1.5-0.1h-4.3v7.9c0,0.8,0.1,1.4,0.2,1.8
		c0.1,0.4,0.4,0.8,0.8,1c0.4,0.2,1,0.4,1.7,0.4c0.8,0.1,1.7,0.1,3,0.1c0.5,0,1.1,0,1.8,0c0.6,0,1.3-0.1,1.9-0.1
		c0.6-0.1,1.2-0.2,1.7-0.3c0.5-0.1,0.9-0.3,1.1-0.5c0.2-0.2,0.5-0.5,0.7-0.9s0.4-0.8,0.6-1.3s0.4-0.9,0.6-1.4
		c0.2-0.5,0.3-0.9,0.4-1.4h1.4L240.9,146.8z"/>
	<path id="XMLID_490_" d="M269.3,134c0,1.5-0.2,2.8-0.6,4c-0.4,1.2-0.9,2.3-1.6,3.2c-0.7,0.9-1.5,1.8-2.4,2.5
		c-0.9,0.7-1.9,1.3-3,1.7s-2.2,0.8-3.3,1c-1.2,0.2-2.3,0.3-3.4,0.3h-10.5v-1.3c0.2,0,0.4,0,0.6,0c0.2,0,0.5,0,0.7-0.1
		c0.2,0,0.5-0.1,0.7-0.1c0.2,0,0.4-0.1,0.5-0.1c0.4-0.2,0.7-0.4,0.8-0.7c0.1-0.3,0.2-0.7,0.2-1.1v-18.8c0-0.4-0.1-0.8-0.2-1.1
		c-0.2-0.3-0.4-0.6-0.8-0.7c-0.4-0.2-0.8-0.3-1.2-0.4c-0.4-0.1-0.8-0.1-1.1-0.1v-1.3h11.1c0.8,0,1.7,0.1,2.6,0.2c1,0.2,2,0.4,3,0.8
		c1,0.4,2,0.9,2.9,1.6c0.9,0.7,1.8,1.5,2.5,2.4c0.7,1,1.3,2.1,1.8,3.4C269,130.8,269.3,132.3,269.3,134z M266.1,134
		c0-1.7-0.3-3.3-0.9-4.7c-0.6-1.4-1.4-2.7-2.4-3.7c-1-1-2.2-1.8-3.6-2.4c-1.4-0.6-3-0.9-4.6-0.9c-0.2,0-0.5,0-0.9,0
		c-0.4,0-0.7,0-1.1,0c-0.4,0-0.7,0-1.1,0c-0.4,0-0.6,0-0.9,0v20c0,0.6,0.1,1.1,0.3,1.4c0.2,0.4,0.5,0.7,0.9,0.9
		c0.4,0.2,0.9,0.4,1.5,0.5c0.6,0.1,1.4,0.1,2.2,0.1c1.8,0,3.3-0.3,4.6-0.8c1.3-0.5,2.4-1.3,3.3-2.3c0.9-1,1.5-2.2,2-3.6
		C265.9,137.2,266.1,135.7,266.1,134z"/>
	<path id="XMLID_493_" d="M281.6,146.8v-1.3c0.2,0,0.4,0,0.7,0c0.3,0,0.5,0,0.8-0.1c0.3,0,0.5-0.1,0.8-0.1c0.2,0,0.4-0.1,0.5-0.1
		c0.5-0.1,0.8-0.4,1-0.7c0.2-0.3,0.2-0.7,0.2-1v-18.9c0-0.4-0.1-0.8-0.2-1.1c-0.2-0.3-0.5-0.5-1-0.7c-0.2-0.1-0.4-0.1-0.6-0.2
		c-0.2-0.1-0.5-0.1-0.7-0.2c-0.3-0.1-0.5-0.1-0.7-0.1c-0.2,0-0.4-0.1-0.6-0.1v-1.3h10.6v1.3c-0.2,0-0.4,0-0.6,0.1
		c-0.2,0-0.5,0.1-0.8,0.1c-0.3,0-0.5,0.1-0.8,0.1c-0.2,0.1-0.5,0.1-0.6,0.2c-0.5,0.1-0.8,0.4-0.9,0.7c-0.2,0.3-0.3,0.7-0.3,1.1v18.8
		c0,0.4,0.1,0.8,0.3,1.1c0.2,0.3,0.5,0.6,0.9,0.8c0.2,0.1,0.4,0.1,0.6,0.2c0.2,0.1,0.5,0.1,0.7,0.1s0.5,0.1,0.8,0.1
		c0.3,0,0.5,0,0.7,0v1.3H281.6z"/>
	<path id="XMLID_495_" d="M322.1,122.2c-0.3,0-0.6,0.1-0.9,0.1c-0.3,0.1-0.6,0.1-0.8,0.2c-0.3,0.1-0.4,0.1-0.5,0.2
		c-0.2,0.1-0.4,0.4-0.6,0.7c-0.1,0.3-0.3,0.6-0.3,1.1c-0.1,0.4-0.1,0.9-0.2,1.4c0,0.5,0,1.1,0,1.8v19.4H318l-17.1-21.7v14.2
		c0,0.8,0,1.4,0.1,2c0,0.6,0.1,1.1,0.2,1.5c0.1,0.4,0.2,0.8,0.3,1c0.1,0.3,0.3,0.5,0.5,0.7c0.1,0.1,0.3,0.2,0.6,0.3
		c0.3,0.1,0.6,0.2,0.9,0.3c0.3,0.1,0.7,0.1,1.1,0.2c0.4,0,0.8,0.1,1.1,0.1v1.3H295v-1.3c0.1,0,0.4,0,0.7,0c0.3,0,0.6-0.1,0.9-0.1
		c0.3-0.1,0.6-0.1,0.9-0.2c0.3-0.1,0.5-0.2,0.7-0.3c0.2-0.2,0.4-0.4,0.5-0.6c0.1-0.3,0.3-0.6,0.3-1s0.2-0.9,0.2-1.4
		c0-0.6,0.1-1.2,0.1-2v-13.3c0-0.6-0.1-1.2-0.3-1.7c-0.2-0.5-0.5-0.9-0.8-1.1c-0.3-0.2-0.6-0.4-0.9-0.6c-0.4-0.2-0.7-0.3-1.1-0.5
		c-0.4-0.1-0.7-0.2-1.1-0.3c-0.3-0.1-0.6-0.1-0.8-0.1v-1.2h6.4l16.3,20.8v-13.8c0-1.4-0.1-2.6-0.2-3.4c-0.2-0.8-0.4-1.4-0.8-1.7
		c-0.2-0.1-0.4-0.2-0.8-0.3c-0.3-0.1-0.7-0.2-1.1-0.2c-0.4-0.1-0.7-0.1-1.1-0.1c-0.3,0-0.6,0-0.8,0v-1.3h10.5v1.3
		C322.7,122.2,322.5,122.2,322.1,122.2z"/>
	<path id="XMLID_497_" d="M355.7,146.8v-1.3c0.2,0,0.4,0,0.7,0c0.3,0,0.6,0,0.9-0.1c0.3,0,0.6-0.1,0.9-0.1c0.3-0.1,0.5-0.1,0.7-0.2
		c0.3-0.2,0.5-0.4,0.7-0.7c0.2-0.3,0.2-0.7,0.2-1.1v-18.5h-0.4l-9.6,21.7h-0.3l-0.5-1.3l-8.7-20.9H340v15.5c0,0.8,0,1.4,0.1,2
		c0,0.6,0.1,1,0.2,1.4c0.1,0.4,0.2,0.7,0.3,1c0.1,0.3,0.3,0.5,0.5,0.6c0.1,0.1,0.3,0.3,0.6,0.4c0.3,0.1,0.6,0.2,0.9,0.3
		c0.3,0.1,0.7,0.1,1,0.2c0.3,0,0.6,0.1,0.9,0.1v1.3h-10.4v-1.3c0.1,0,0.4,0,0.6,0c0.3,0,0.6,0,0.9-0.1c0.3,0,0.6-0.1,1-0.2
		s0.6-0.2,0.8-0.3c0.2-0.2,0.4-0.4,0.5-0.6c0.1-0.3,0.2-0.6,0.3-1c0.1-0.4,0.1-0.9,0.2-1.5c0-0.6,0-1.2,0-2v-13.6
		c0-0.8-0.1-1.4-0.3-1.9c-0.2-0.5-0.5-0.9-0.8-1.2c-0.2-0.2-0.4-0.3-0.7-0.5c-0.3-0.1-0.5-0.2-0.8-0.3c-0.3-0.1-0.6-0.1-0.8-0.2
		c-0.3,0-0.5-0.1-0.7-0.1v-1.3h7.5l8.7,20.4l7.6-17.2c0.1-0.3,0.3-0.7,0.4-1c0.1-0.3,0.2-0.7,0.3-0.9c0.1-0.3,0.1-0.5,0.2-0.7
		c0-0.2,0.1-0.4,0.1-0.5h7.1v1.3c-0.1,0-0.3,0-0.5,0c-0.2,0-0.5,0.1-0.7,0.1c-0.3,0-0.5,0.1-0.7,0.2c-0.2,0.1-0.4,0.1-0.6,0.2
		c-0.4,0.1-0.7,0.4-0.8,0.7c-0.1,0.3-0.2,0.7-0.2,1.1v18.8c0,0.4,0.1,0.8,0.2,1c0.1,0.3,0.3,0.5,0.6,0.7c0.2,0.1,0.4,0.2,0.6,0.2
		c0.3,0.1,0.5,0.1,0.8,0.2c0.3,0.1,0.5,0.1,0.8,0.1c0.3,0,0.5,0,0.6,0v1.3H355.7z"/>
	<path id="XMLID_499_" d="M391,146.8v-1.3c0.2,0,0.4,0,0.7,0c0.3,0,0.6,0,0.9-0.1c0.3,0,0.6-0.1,0.9-0.1c0.3-0.1,0.5-0.1,0.7-0.2
		c0.3-0.2,0.5-0.4,0.7-0.7c0.2-0.3,0.2-0.7,0.2-1.1v-18.5h-0.4l-9.6,21.7h-0.3l-0.5-1.3l-8.7-20.9h-0.3v15.5c0,0.8,0,1.4,0.1,2
		c0,0.6,0.1,1,0.2,1.4c0.1,0.4,0.2,0.7,0.3,1s0.3,0.5,0.5,0.6c0.1,0.1,0.3,0.3,0.6,0.4c0.3,0.1,0.6,0.2,0.9,0.3
		c0.3,0.1,0.7,0.1,1,0.2c0.3,0,0.6,0.1,0.9,0.1v1.3h-10.4v-1.3c0.1,0,0.4,0,0.6,0c0.3,0,0.6,0,0.9-0.1c0.3,0,0.6-0.1,1-0.2
		s0.6-0.2,0.8-0.3c0.2-0.2,0.4-0.4,0.5-0.6c0.1-0.3,0.2-0.6,0.3-1c0.1-0.4,0.1-0.9,0.2-1.5c0-0.6,0-1.2,0-2v-13.6
		c0-0.8-0.1-1.4-0.3-1.9c-0.2-0.5-0.5-0.9-0.8-1.2c-0.2-0.2-0.4-0.3-0.7-0.5c-0.3-0.1-0.5-0.2-0.8-0.3c-0.3-0.1-0.6-0.1-0.8-0.2
		c-0.3,0-0.5-0.1-0.7-0.1v-1.3h7.5l8.7,20.4l7.6-17.2c0.1-0.3,0.3-0.7,0.4-1c0.1-0.3,0.2-0.7,0.3-0.9c0.1-0.3,0.1-0.5,0.2-0.7
		c0-0.2,0.1-0.4,0.1-0.5h7.1v1.3c-0.1,0-0.3,0-0.5,0c-0.2,0-0.5,0.1-0.7,0.1c-0.3,0-0.5,0.1-0.7,0.2c-0.2,0.1-0.4,0.1-0.6,0.2
		c-0.4,0.1-0.7,0.4-0.8,0.7c-0.1,0.3-0.2,0.7-0.2,1.1v18.8c0,0.4,0.1,0.8,0.2,1c0.1,0.3,0.3,0.5,0.6,0.7c0.2,0.1,0.4,0.2,0.6,0.2
		c0.3,0.1,0.5,0.1,0.8,0.2c0.3,0.1,0.5,0.1,0.8,0.1c0.3,0,0.5,0,0.6,0v1.3H391z"/>
	<path id="XMLID_501_" d="M419,146.8v-1.3c0.1,0,0.4,0,0.8,0c0.4,0,0.7,0,1.1-0.1c0.4-0.1,0.7-0.2,1-0.3c0.3-0.1,0.4-0.3,0.4-0.6
		c0-0.3-0.2-0.7-0.5-1.4c-0.4-0.6-0.9-1.4-1.5-2.4c-0.6-0.9-1.3-1.9-2-2.9c-0.7-1-1.4-1.9-2.1-2.8c-0.3,0.4-0.6,0.8-1,1.4
		c-0.4,0.6-0.8,1.2-1.2,1.8c-0.4,0.6-0.9,1.3-1.3,1.9c-0.4,0.7-0.8,1.3-1.2,1.8c-0.4,0.6-0.6,1.1-0.9,1.5c-0.2,0.4-0.3,0.7-0.3,0.9
		c0,0.3,0.1,0.5,0.3,0.6c0.2,0.2,0.4,0.3,0.7,0.3s0.6,0.1,1,0.1c0.4,0,0.8,0,1.2,0v1.3h-9.8v-1.3c0.2,0,0.3,0,0.6,0
		c0.2,0,0.5,0,0.7-0.1c0.3,0,0.5-0.1,0.8-0.2s0.5-0.2,0.7-0.3c0.4-0.2,0.8-0.5,1.2-0.9c0.4-0.4,0.7-0.8,1.1-1.3c0.5-0.6,1-1.3,1.5-2
		c0.6-0.7,1.1-1.5,1.7-2.3c0.6-0.8,1.2-1.6,1.7-2.4c0.6-0.8,1.1-1.6,1.6-2.3c-0.4-0.6-0.9-1.2-1.4-1.9c-0.5-0.7-1.1-1.4-1.6-2.2
		c-0.6-0.8-1.2-1.6-1.8-2.4s-1.2-1.6-1.9-2.5c-0.3-0.3-0.5-0.6-0.7-0.9c-0.2-0.2-0.4-0.4-0.6-0.6s-0.4-0.3-0.6-0.4
		c-0.2-0.1-0.4-0.2-0.6-0.3c-0.2-0.1-0.4-0.2-0.6-0.2c-0.2-0.1-0.4-0.1-0.6-0.2c-0.2,0-0.4-0.1-0.6-0.1c-0.2,0-0.3,0-0.4,0v-1.3
		h10.4v1.3c-0.1,0-0.4,0-0.7,0c-0.4,0-0.7,0-1.1,0.1c-0.4,0.1-0.7,0.1-1,0.3c-0.3,0.1-0.4,0.3-0.4,0.5c0,0.1,0,0.3,0.1,0.5
		c0.1,0.2,0.2,0.4,0.3,0.7c0.1,0.3,0.3,0.5,0.5,0.8c0.2,0.3,0.4,0.6,0.6,0.9c0.7,1,1.4,2,2.1,2.9c0.7,0.9,1.4,1.9,2.2,3
		c0.3-0.4,0.7-0.9,1.1-1.4c0.4-0.5,0.8-1.1,1.2-1.7c0.4-0.6,0.8-1.2,1.2-1.7c0.4-0.6,0.7-1.1,1-1.6c0.3-0.5,0.5-0.9,0.7-1.3
		c0.2-0.4,0.3-0.6,0.3-0.8c0-0.3-0.1-0.5-0.4-0.7c-0.3-0.2-0.5-0.3-0.9-0.3c-0.3-0.1-0.7-0.1-1-0.1c-0.4,0-0.6,0-0.8,0v-1.3h9.7v1.3
		c-0.1,0-0.2,0-0.4,0c-0.2,0-0.4,0-0.6,0.1c-0.2,0-0.5,0.1-0.7,0.1c-0.3,0.1-0.5,0.1-0.7,0.2c-0.2,0.1-0.4,0.2-0.6,0.3
		c-0.2,0.1-0.4,0.3-0.5,0.4c-0.2,0.2-0.4,0.3-0.6,0.6c-0.2,0.2-0.4,0.5-0.7,0.8c-0.4,0.5-0.9,1.1-1.4,1.8c-0.5,0.7-1.1,1.4-1.6,2.1
		s-1.1,1.5-1.7,2.2c-0.6,0.7-1.1,1.4-1.5,2.1c0.4,0.6,0.9,1.2,1.5,2c0.6,0.7,1.1,1.5,1.8,2.4c0.6,0.8,1.3,1.7,2,2.6
		c0.7,0.9,1.4,1.9,2,2.8c1,1.3,1.7,2.1,2.2,2.4c0.1,0.1,0.3,0.1,0.5,0.1c0.2,0,0.4,0.1,0.7,0.1c0.2,0,0.5,0.1,0.7,0.1
		c0.2,0,0.4,0,0.5,0v1.3H419z"/>
	<path id="XMLID_503_" d="M455.3,122.2c-0.2,0-0.4,0.1-0.6,0.1c-0.2,0.1-0.4,0.1-0.6,0.2c-0.2,0.1-0.4,0.2-0.5,0.2
		c-0.4,0.3-0.7,0.6-1,1c-0.3,0.4-0.5,0.9-0.8,1.4c-0.3,0.6-0.6,1.4-1.1,2.4c-0.4,1-0.9,2.1-1.5,3.4c-0.5,1.2-1.1,2.6-1.7,4
		c-0.6,1.4-1.2,2.8-1.8,4.3c-0.6,1.4-1.2,2.8-1.8,4.2c-0.6,1.4-1.1,2.6-1.5,3.8h-0.5c-0.6-1.6-1.2-3.3-1.8-4.9
		c-0.6-1.6-1.2-3.2-1.8-4.7c-0.6-1.5-1.2-3-1.8-4.4c-0.6-1.4-1.1-2.6-1.5-3.8c-0.5-1.1-0.9-2.1-1.2-2.9c-0.3-0.8-0.6-1.4-0.8-1.9
		c-0.1-0.4-0.3-0.7-0.6-1c-0.2-0.3-0.5-0.6-0.9-0.8c-0.2-0.1-0.3-0.2-0.5-0.2c-0.2-0.1-0.4-0.1-0.6-0.2c-0.2,0-0.4-0.1-0.6-0.1
		c-0.2,0-0.4,0-0.5,0v-1.3h9.4v1.3c-0.5,0-1,0-1.4,0c-0.4,0-0.8,0.1-1,0.1c-0.3,0.1-0.5,0.2-0.7,0.3c-0.2,0.1-0.2,0.3-0.2,0.5
		c0,0.1,0,0.3,0.1,0.5c0.1,0.2,0.1,0.4,0.2,0.6c0.2,0.5,0.5,1.2,1,2.4c0.5,1.1,1,2.4,1.7,4c0.6,1.6,1.4,3.3,2.1,5.3
		c0.8,1.9,1.6,4,2.4,6.1c0.4-0.8,0.8-1.7,1.2-2.7c0.4-1,0.8-1.9,1.3-2.9c0.4-1,0.8-1.9,1.2-2.9c0.4-1,0.8-1.9,1.1-2.7
		c0.4-0.8,0.7-1.6,0.9-2.3c0.3-0.7,0.5-1.2,0.7-1.6c0.3-0.9,0.5-1.6,0.6-2.1c0.1-0.5,0.1-0.8,0.1-1c0-0.3-0.1-0.5-0.3-0.7
		c-0.2-0.2-0.5-0.3-0.8-0.5c-0.3-0.1-0.7-0.2-1.2-0.3c-0.4-0.1-0.8-0.1-1.2-0.2v-1.2h9.3v1.2C455.7,122.1,455.5,122.2,455.3,122.2z"
		/>
	<path id="XMLID_505_" d="M456.9,146.8v-1.3c0.2,0,0.4,0,0.7,0c0.3,0,0.5,0,0.8-0.1c0.3,0,0.5-0.1,0.8-0.1c0.2,0,0.4-0.1,0.5-0.1
		c0.5-0.1,0.8-0.4,1-0.7s0.2-0.7,0.2-1v-18.9c0-0.4-0.1-0.8-0.2-1.1c-0.2-0.3-0.5-0.5-1-0.7c-0.2-0.1-0.4-0.1-0.6-0.2
		c-0.2-0.1-0.5-0.1-0.7-0.2c-0.3-0.1-0.5-0.1-0.7-0.1s-0.4-0.1-0.6-0.1v-1.3h10.6v1.3c-0.2,0-0.4,0-0.6,0.1c-0.2,0-0.5,0.1-0.8,0.1
		c-0.3,0-0.5,0.1-0.8,0.1c-0.2,0.1-0.5,0.1-0.6,0.2c-0.5,0.1-0.8,0.4-0.9,0.7c-0.2,0.3-0.3,0.7-0.3,1.1v18.8c0,0.4,0.1,0.8,0.3,1.1
		c0.2,0.3,0.5,0.6,0.9,0.8c0.2,0.1,0.4,0.1,0.6,0.2c0.2,0.1,0.5,0.1,0.7,0.1c0.3,0,0.5,0.1,0.8,0.1c0.3,0,0.5,0,0.7,0v1.3H456.9z"/>
	<path id="XMLID_507_" d="M470.6,146.8v-1.3c0.2,0,0.4,0,0.7,0c0.3,0,0.5,0,0.8-0.1c0.3,0,0.5-0.1,0.8-0.1c0.2,0,0.4-0.1,0.5-0.1
		c0.5-0.1,0.8-0.4,1-0.7c0.2-0.3,0.2-0.7,0.2-1v-18.9c0-0.4-0.1-0.8-0.2-1.1c-0.2-0.3-0.5-0.5-1-0.7c-0.2-0.1-0.4-0.1-0.6-0.2
		c-0.2-0.1-0.5-0.1-0.7-0.2c-0.3-0.1-0.5-0.1-0.7-0.1s-0.4-0.1-0.6-0.1v-1.3h10.6v1.3c-0.2,0-0.4,0-0.6,0.1c-0.2,0-0.5,0.1-0.8,0.1
		c-0.3,0-0.5,0.1-0.8,0.1c-0.2,0.1-0.5,0.1-0.6,0.2c-0.5,0.1-0.8,0.4-0.9,0.7c-0.2,0.3-0.3,0.7-0.3,1.1v18.8c0,0.4,0.1,0.8,0.3,1.1
		c0.2,0.3,0.5,0.6,0.9,0.8c0.2,0.1,0.4,0.1,0.6,0.2c0.2,0.1,0.5,0.1,0.7,0.1s0.5,0.1,0.8,0.1c0.3,0,0.5,0,0.7,0v1.3H470.6z"/>
	<path id="XMLID_509_" d="M484.4,146.8v-1.3c0.2,0,0.4,0,0.7,0c0.3,0,0.5,0,0.8-0.1c0.3,0,0.5-0.1,0.8-0.1c0.2,0,0.4-0.1,0.5-0.1
		c0.5-0.1,0.8-0.4,1-0.7s0.2-0.7,0.2-1v-18.9c0-0.4-0.1-0.8-0.2-1.1c-0.2-0.3-0.5-0.5-1-0.7c-0.2-0.1-0.4-0.1-0.6-0.2
		c-0.2-0.1-0.5-0.1-0.7-0.2c-0.3-0.1-0.5-0.1-0.7-0.1s-0.4-0.1-0.6-0.1v-1.3H495v1.3c-0.2,0-0.4,0-0.6,0.1c-0.2,0-0.5,0.1-0.8,0.1
		c-0.3,0-0.5,0.1-0.8,0.1c-0.2,0.1-0.5,0.1-0.6,0.2c-0.5,0.1-0.8,0.4-0.9,0.7c-0.2,0.3-0.3,0.7-0.3,1.1v18.8c0,0.4,0.1,0.8,0.3,1.1
		c0.2,0.3,0.5,0.6,0.9,0.8c0.2,0.1,0.4,0.1,0.6,0.2c0.2,0.1,0.5,0.1,0.7,0.1c0.3,0,0.5,0.1,0.8,0.1c0.3,0,0.5,0,0.7,0v1.3H484.4z"/>
</g>
</svg>
