<?xml version="1.0" encoding="utf-8"?>
<!-- Generator: Adobe Illustrator 19.0.0, SVG Export Plug-In . SVG Version: 6.00 Build 0)  -->
<svg version="1.1" id="Warstwa_1" xmlns="http://www.w3.org/2000/svg" xmlns:xlink="http://www.w3.org/1999/xlink" x="0px" y="0px"
	 viewBox="0 0 960 960" style="enable-background:new 0 0 960 960;" xml:space="preserve">
<style type="text/css">
	.st0{fill:#FBF7F5;}
</style>
<path id="XMLID_142_" class="st0" d="M121.8,95.8c-1.2-2.1-2.5-3.1-3.8-3.2c-1.3-0.1-3.4,0.6-7.1,2.2L106,97v85.3l-10.2,8.5
	c-6.5,5.5-9.6,8.7-8.7,9.6c0.9,0.9,6.8,2.8,18.1,5.9c11.3,3.1,17.2,4.4,17.9,3.9c0.9-0.7,1.3-19.3,1.3-55.8c0-23.8-0.1-39.1-0.4-46
	C123.8,101.5,123,97.3,121.8,95.8z M91.1,50.3c6.3-1.4,12.8-2,19.4-1.9c6.6,0.1,9.9,1,9.9,2.7c0,1.2-1.4,2.8-4.1,4.7
	c-2.7,1.9-8.2,5.1-16.3,9.6c-8.5,4.7-16,10.7-22.6,18.2s-11.8,15.6-15.6,24.3c-3.8,8.7-6.4,17.6-7.8,26.6c-1.4,9-1.1,17.8,0.9,26.2
	c2,8.4,5.6,15.8,10.7,22l3.5,3.9c3.9-3.6,7.7-7.2,11.7-10.9v-14.5c0-9.5-0.4-14.6-1.1-15.5c-0.7-0.5-3.1,0.8-7.2,3.9
	c-3.7,2.9-6.3,4.2-7.7,3.7c-1.4-0.4-2.1-2.6-2.1-6.6c0-2.4,0.5-4.4,1.4-6.1c1-1.6,3.2-4,6.7-7.1l7.9-7.2c0.4-13.1,0.6-26.3,0.8-39.5
	l5-1c9.5-2.2,15.6-3.9,18.4-5c2.7-1.1,5.6-3.2,8.6-6.3l6.1-6.5l12.2,2.1c7.9,1.4,14.5,1.7,19.7,1c5.2-0.7,11.1-2.5,17.8-5.4
	c7.2-3.3,11-4.9,11.4-4.9c0.5,0,0.8,1.2,0.8,3.6c0,2.8-1.5,6.1-4.4,10.1c-2.9,4-6.8,8-11.8,12.1c-4.9,4.1-10,7.8-15.8,10.9l-4.7,2.6
	v51.7c0,34.3,0.1,51.7,1,52.2c0.5,0.3,4.7-0.9,12.9-3.9c8.2-2.9,12.4-4.2,12.7-3.9c0.7,0.9-1.2,4.3-5.7,10.2
	c-4.5,5.9-9,11-13.6,15.1c-13,11.7-28.7,17.1-46.9,16.1c-18.2-0.9-36-8.1-53.3-21.6c-13.4-10.5-22.7-24.5-28-42
	c-5.3-17.5-5.9-35.3-1.7-53.5c4.1-18.2,12.6-33.4,25.2-45.6C51.1,69.3,58,64.4,66.3,60C74.6,55.6,82.9,52.4,91.1,50.3z"/>
<path id="XMLID_139_" class="st0" d="M324.6,103.5c-0.5-1.7-3.9-8-10-18.9c-6.2-10.9-9.9-16.2-11.1-16c-1.2,0-4.7,2.9-12.1,8.8
	L281,85.9V104c0,11.9-0.5,18.1,0,18.6c0.9,0.7,5.6,0.2,15.1-1.4c9.4-1.6,15.1-3.1,17.4-4.3c3.3-1.7,6.1-3.9,8.4-6.6
	C324.1,107.7,324.9,105.4,324.6,103.5z M233.4,43.3c1.6-0.9,6.9-1.4,16-1.7c9.1-0.3,18.2,0,25.8,0.9l10.8,1v5.7c0,4.3-1.1,6.6-1.1,7
	c0.2,0.9,3.1-1.4,9.6-6.7c4.4-3.6,7.4-5.9,9.3-6.7c1.9-0.9,4.6-1.3,8.1-1.3c2.3,0,3.8,0,4.7,0.1c0.9,0.1,2,0.6,3.4,1.4
	c1.4,0.9,2.7,1.9,3.8,3.1c1.1,1.2,3,3.4,5.7,6.7c3.9,4.3,7.4,9.1,10.6,14.3c3.2,5.3,5.9,10.5,8.2,15.8c2.3,5.3,4.1,10.4,5.4,15.5
	c1.3,5.1,2,9.8,2,14.1c0,3.4-0.5,5.9-1.5,7.5c-1,1.6-3.6,4.3-7.8,8.3l-8.7,8.3l6.3,7.5c5.6,6.7,10,13.7,13.1,20.9
	c3.1,7.2,5.2,15.8,6.5,25.8c0.9,5,1.6,8.7,2.2,11.2c0.6,2.5,1.4,4.4,2.4,5.8c1,1.4,2.4,2.8,4.4,4.1c1.6,1,3,1.6,4.2,1.6
	c1.2,0,3.4-0.5,6.6-1.6c7.2-2.4,12.7-3.3,16.4-2.6c-0.5,1-1.1,2-1.6,3c-0.5,0.9-1.2,2.1-2,3.4c-0.8,1.3-1.8,2.7-2.9,4.3
	c-1.1,1.5-2.2,3.2-3.3,4.9c-4.6,6.4-7.9,10.7-10,12.9c-2.1,2.2-4.5,3.7-7.1,4.4c-4.2,1.2-8.3,1.6-12.2,1.2
	c-3.9-0.4-7.4-1.8-10.4-4.1c-3.1-2.3-5.4-5.1-7-8.4c-1.4-3.4-3.3-12-5.5-25.6c-1.9-12.4-3.9-21.4-5.9-27.1c-2-5.7-4.8-10.6-8.3-14.7
	c-4.1-4.8-8.4-8.2-13.1-10.2c-4.7-2-10.7-3-18.1-3l-12.2-0.3l-0.3,31c-0.2,13.6-0.1,22.3,0.1,26.2c0.3,3.9,0.9,6.2,2,7.1
	c2.1,1.7,6.6,2.7,13.3,2.8c6.8,0.2,11.9-0.5,15.5-2.1c4.1-1.5,6.4-2.2,7-2.1c0.6,0.2,0.6,1.7-0.1,4.7c-0.7,3.8-2.6,7.4-5.7,10.7
	c-3.1,3.4-6.7,5.8-10.7,7.4c-3.7,1.4-6.5,2-8.3,1.9c-1.8-0.1-5.9-1.1-12.3-3c-9.7-2.8-19.7-4.1-30-4c-10.3,0.1-18.6,1.6-25,4.5
	c-7,3.1-10.6,3.5-10.6,1.3c0-0.9,0.3-2.2,0.8-3.9c1.6-3.6,4.7-6.8,9.4-9.6c4.7-2.8,12.4-5.9,23.1-9.6c1.4-0.7,2.1-10.8,2-30.2
	c-0.1-19.5-0.9-29.2-2.5-29.2c-1.2,0-4.9,1.2-11.1,3.6c-5.8,2.8-9.1,3.8-9.8,3.1c-1.1-1-1.3-3.1-0.8-6.2c0.5-3.1,1.6-6.3,3.2-9.6
	c1.9-4.3,5.8-8.9,12-13.7l8.6-6.2V94.7c0-20.3-0.5-31.1-1.8-32.3c-1.3-1.2-4.8-1.8-10.6-1.8s-10.6,0.7-14.5,2.1
	c-4.4,1.6-6.9,2.1-7.4,1.6c-1.2-1.2,0.4-4.4,4.9-9.7C225.1,49.3,229.4,45.6,233.4,43.3z"/>
<path id="XMLID_137_" class="st0" d="M497.7,45.1c7.6-3.4,11.4-4.5,11.4-3.1c0,0.5-1.1,2.6-3.2,6.2c-1.9,3.3-3.3,5.9-4.1,7.8
	c-0.8,1.9-1.5,6.4-2.1,13.6c-0.6,7.1-1,15.1-1.2,23.9c-0.2,8.8-0.4,23.8-0.5,45l-1.1,73.9l-4.8,7c-3.2,4.3-7.3,7.8-12.4,10.6
	L472,234l-7.4-5.9c-4.6-3.3-8.2-5.1-10.8-5.4c-2.6-0.3-5.5,0.6-8.5,2.8c-2.8,2.1-4.8,2.8-5.8,2.3c-1.2-0.7-1.8-3.8-1.8-9.3
	c0-5.7,1.2-9.8,3.7-12.4c6.5-6.9,12-9.5,16.4-7.8c3.3,1,5.4,1.3,6.1,0.8c0.9-0.5,1.4-9.3,1.6-26.5c0.2-17.1-0.2-26-1.1-26.7
	c-0.7-0.7-4.1,0.3-10.3,2.8c-7.8,3.1-12,4-12.7,2.8c-0.4-0.7-0.4-2.2,0-4.7c1.4-7.8,6.1-14.1,14.9-19.1l6.7-4.1V69.9l-4.1-1.6
	c-3.7-1.4-6.5-1.5-8.9-0.4c-2.4,1.1-4.3,3.7-6.1,7.6c-1.9,4.5-3.4,7-4.6,7.5c-1.1,0.5-2.5-0.6-4.1-3.4c-2.3-4.7-2.9-9.6-1.8-14.7
	c1.1-5.2,3.6-9.6,7.7-13.2c1.6-1.4,3.8-2.2,6.6-2.6c2.8-0.3,9.4-0.5,19.8-0.5c10,0,16.8-0.2,20.2-0.6
	C491.2,47.7,494.5,46.7,497.7,45.1z"/>
<path id="XMLID_135_" class="st0" d="M620.8,49c7.6-4.8,12.3-7.2,14.3-7.2c2.3-0.2,7.2,3.4,14.8,10.9c7.6,7.4,11.9,11.1,13.1,11.1
	c1.1,0,5.3-3.7,12.6-11.1l10.3-11.1c6.9,0.2,13.7,0.3,20.6,0.3L742.1,79l0.8,54.8c0.7,36.7,1.7,55.6,2.9,56.8
	c1.2,1.2,4.8,2.8,10.6,4.7c5.6,1.7,8.6,3.4,9,4.9c0.2,1.7-3.3,7.5-10.6,17.3c-4.9,6.7-8.3,10.9-10.2,12.7c-1.9,1.7-4.1,2.7-6.7,2.8
	c-1.1,0.2-2.2,0.1-3.4-0.1c-1.2-0.3-2.5-0.6-3.7-1c-1.2-0.4-2.5-1-3.7-1.8c-1.2-0.8-2.4-1.6-3.4-2.6c-1.1-0.9-2.1-2-3-3.1
	c-1-1.1-1.8-2.4-2.5-3.7c-1.6-2.6-2.6-7-3-13.3c-0.4-6.3-0.8-23.7-1.2-52.3c-0.4-29.3-0.8-46.9-1.2-52.8c-0.4-5.9-1.5-10.3-3.3-13
	c-5.6-9-10.8-12.9-15.6-11.9c-9.5,2.4-14.4,13.3-14.5,32.8c0,9.3,0.5,14.5,1.6,15.5c1.1,1.2,4.5,0.5,10.3-2.2
	c5.8-2.7,9.1-3.7,9.8-3.2c1.1,0.5,1,2.8-0.3,7c-1.2,4.1-2.9,7.8-5,10.9c-2.3,3.6-5.5,6.9-9.8,9.8l-5.5,3.9l-1.1,16.5
	c-1.2,16.9,0.4,29.7,4.8,38.5l2.6,5.7l-10.3,12.9c-7,8.6-11,12.8-11.9,12.7c-1.2,0-4.9-3.4-10.4-10.1l-9.1-10.1v-31.8
	c0-21.2-0.2-31.8-1.3-31.8c-1.1,0-3.6,1-8,3.1l-6.3,3.1l-1.5-3.4c-3.2-5.3,0.5-12.3,10.2-20.9l9.9-8.8v-17.6c0-11.7-0.9-18.8-2-21.2
	c-1.4-2.4-3.7-5-6.4-7.9c-2.7-2.8-4.8-4.3-5.9-4.3c-1.1,0-3.2,1.4-6,4.3c-2.8,2.8-4.8,5.5-6,7.9c-1.2,2.6-1.8,23.6-1.8,63V211
	l-11,11.6c-7,7.6-11,11.4-11.7,11.4c-0.7,0-5-2-13-5.9c-5.6-2.9-9.3-4.6-10.8-4.9c-1.6-0.3-3.3,0.2-5,1.5c-3,1.9-5.2,2.3-6.6,1.3
	c-1.4-1-2.1-3.6-2.1-7.8c0-2.1,0.2-3.7,0.5-5c0.4-1.3,0.9-2.5,1.7-3.7c0.8-1.2,2.1-2.8,3.8-4.9c1.9-2.1,3.4-3.5,4.4-4.3
	c1-0.8,2.2-1.3,3.7-1.5c1.5-0.3,3.2-0.2,5.2,0.1l7.4,0.3l0.5-23c0.2-15.3,0-23.6-0.5-24.8c-0.4-1-1.3-1.3-2.9-0.9
	c-1.6,0.4-3.2,1.2-4.9,2.2c-1.7,1-3.3,1.4-4.9,1.2c-1.6-0.3-2.6-1.6-3.2-4c-1.4-6.7,2-13.3,10.3-19.6l6.6-5.2l-0.5-23.3
	c-0.2-11.2-0.5-18.1-0.9-20.8c-0.4-2.7-1.5-4.9-3.3-6.6c-2.6-2.9-5.6-4.6-9-5c-3.3-0.4-8.9,0.1-16.6,1.7c-9.2,1.7-14,2.3-14.5,1.8
	c-0.7-0.7-0.7-2,0.1-3.9c0.8-1.9,2-4,3.6-6.2c1.6-2.2,3.6-4.4,5.9-6.5c2.4-2.1,4.5-3.6,6.5-4.7c3.7-1.9,9.2-2.8,16.5-2.6
	c7.3,0.2,14.7,1.3,22.1,3.4l12.2,3.6L620.8,49z"/>
<path id="XMLID_133_" class="st0" d="M856,45.9c7-3.8,18.8-3.6,35.4,0.5c8.1,2.1,17.4,3.5,27.7,4.4l14.5,1l-0.5,5.4
	c-0.5,6.9-4.6,11.6-12.3,14.2c-7.7,2.6-20.2,3.4-37.7,2.6c-8.5-0.3-14-0.4-16.5-0.1c-2.6,0.3-4.3,0.9-5.2,1.9
	c-1.6,1.7-2.3,8.6-2.2,20.5c0.1,12,0.8,18.6,2.2,20c1.2,1.4,10.8,3.7,28.8,7c17.8,2.9,27,5,27.5,6.2c0.5,1.4-1.5,5-6.2,10.9
	c-4.7,5.9-7.7,8.8-9.1,8.8c-0.2,0-3.7-0.5-10.6-1.5c-6.9-1-13.7-1.9-20.5-2.7c-6.8-0.8-10.4-1-10.7-0.6c-0.5,0.5-0.8,7.5-0.8,20.9
	c0,9,0.2,14.7,0.5,17.2c0.4,2.5,1.1,4,2.4,4.5c1.9,1,11.3,3.6,28,7.8c16.6,4,29.7,5.9,39.4,5.9c9.3,0,14,0.3,14,1
	c0,0.5-2.9,4.6-8.7,12.1c-5.8,7.6-10,12.8-12.7,15.8l-3.2,3.4l-13.2-6.2c-29.6-14-60.3-14.1-92.2-0.5c-4.9,2.1-8.4,3.3-10.3,3.7
	c-1.9,0.4-3.1,0.2-3.4-0.6c-0.5-1.2,1.4-4.5,5.8-9.8c4.4-5.3,8.7-9.6,12.9-12.7c4.6-3.4,7.7-7.6,9.2-12.5c1.6-4.9,2.4-12.9,2.4-23.9
	c0-12.7-0.4-19.5-1.3-20.2c-1.1-0.7-4.9,0-11.6,2.1c-6.9,2.1-11.1,2.5-12.7,1.3c-1.4-1-2.1-1.9-2.1-2.6c0-0.9,4.9-5.4,14.8-13.7
	l14.5-12.4l-0.8-53.7l-5-3.9c-2.1-1.9-4-3-5.7-3.4c-1.7-0.3-5.2-0.3-10.7,0.3c-4.9,0.3-8.2,0.4-9.6,0.3c-1.5-0.2-2.2-0.8-2.2-1.8
	c0-2.2,1.4-4.9,4.2-8c2.8-3.1,6-5.4,9.5-7c3.9-1.7,7.6-2.7,11.2-2.8c3.6-0.2,9.2,0.4,16.8,1.8c4.8,0.7,8.1,1,9.9,0.9
	C851.9,47.5,853.9,46.9,856,45.9z"/>
<path id="XMLID_129_" class="st0" d="M121.8,325c-1.4-2-2.5-3.1-3.8-3.2c-1.3-0.1-3.4,0.6-7.1,2.2l-4.9,2.3v85.3l-10.2,8.5
	c-6.5,5.5-9.6,8.7-8.7,9.6c0.9,0.9,6.8,2.8,18.1,5.9c11.3,3.1,17.2,4.4,17.9,3.9c0.9-0.7,1.3-19.3,1.3-55.8c0-23.8-0.1-39.1-0.4-46
	C123.8,330.8,122.9,326.6,121.8,325z M91.1,279.5c6.3-1.5,12.8-2,19.4-1.9c6.6,0.1,9.9,1,9.9,2.7c0,1.2-1.4,2.8-4.1,4.7
	c-2.7,1.9-8.2,5.1-16.3,9.6c-8.5,4.7-16,10.7-22.6,18.2S65.7,328.3,61.9,337c-3.8,8.7-6.4,17.6-7.8,26.6c-1.4,9-1.1,17.8,0.9,26.2
	c2,8.4,5.6,15.8,10.7,22l3.5,3.9c3.9-3.6,7.7-7.2,11.7-10.9v-14.5c0-9.5-0.3-14.7-1.1-15.5c-0.6-0.6-3.2,0.7-7.2,3.9
	c-3.7,2.9-6.3,4.2-7.7,3.7c-1.4-0.4-2.1-2.6-2.1-6.6c0-2.4,0.5-4.4,1.4-6.1c1-1.6,3.2-4,6.7-7.1l7.9-7.2c0.4-13.1,0.6-26.3,0.8-39.5
	l5-1c9.5-2.2,15.6-3.9,18.4-5c2.7-1.1,5.6-3.2,8.6-6.3l6.1-6.5l12.2,2.1c7.9,1.4,14.5,1.7,19.7,1c5.2-0.7,11.2-2.5,17.8-5.4
	c7.2-3.2,11-4.9,11.4-4.9c0.5,0,0.8,1.2,0.8,3.6c0,2.8-1.5,6.1-4.4,10.1c-2.9,4-6.8,8-11.8,12.1c-4.9,4.1-10,7.8-15.8,10.9l-4.7,2.6
	v51.7c0,34.3,0.1,51.7,1,52.2c0.5,0.3,4.7-0.9,12.9-3.9c8.2-2.9,12.4-4.2,12.7-3.9c0.7,0.9-1.2,4.3-5.7,10.2
	c-4.5,5.9-9,11-13.6,15.1c-13,11.7-28.7,17.1-46.9,16.1c-18.2-0.9-36-8.1-53.3-21.6c-13.4-10.5-22.7-24.5-28-42
	c-5.3-17.5-5.9-35.3-1.7-53.5c4.1-18.2,12.6-33.4,25.2-45.6c5.5-5.5,12.3-10.5,20.6-14.9C74.6,284.8,82.8,281.5,91.1,279.5z"/>
<path id="XMLID_126_" class="st0" d="M324.6,332.8c-0.4-1.7-3.9-8-10-18.9c-6.2-10.9-9.9-16.1-11.1-16c-1.2,0.1-4.7,2.9-12.1,8.8
	l-10.3,8.5v18.1c0,11.9-0.5,18.1,0,18.6c0.9,0.7,5.6,0.2,15.1-1.4c9.4-1.6,15.1-3.1,17.4-4.3c3.3-1.7,6.1-3.9,8.4-6.6
	C324.1,336.9,325,334.6,324.6,332.8z M233.4,272.6c1.6-0.9,6.9-1.4,16-1.7c9.1-0.3,18.2,0,25.8,0.9l10.8,1v5.7c0,4.3-1.1,6.6-1.1,7
	c0.2,0.9,3.1-1.4,9.6-6.7c4.4-3.6,7.4-5.9,9.3-6.7c1.9-0.9,4.6-1.3,8.1-1.3c2.3,0,3.8,0,4.7,0.1c0.9,0.1,2,0.6,3.4,1.4
	c1.4,0.9,2.7,1.9,3.8,3.1c1.1,1.2,3,3.4,5.7,6.7c3.9,4.3,7.4,9.1,10.6,14.3c3.2,5.3,5.9,10.5,8.2,15.8c2.3,5.3,4.1,10.4,5.4,15.5
	c1.3,5.1,2,9.8,2,14.1c0,3.4-0.5,5.9-1.5,7.5c-1,1.6-3.6,4.3-7.8,8.3l-8.7,8.3l6.3,7.5c5.6,6.7,10,13.7,13.1,20.9
	c3.1,7.2,5,15.9,6.5,25.8c0.8,5,1.6,8.7,2.2,11.2c0.6,2.5,1.4,4.4,2.4,5.8c1,1.4,2.4,2.8,4.4,4.1c1.6,1.1,3,1.6,4.2,1.6
	c1.2,0,3.4-0.5,6.6-1.6c7.2-2.4,12.7-3.3,16.4-2.6c-0.5,1-1.1,2-1.6,3c-0.5,0.9-1.2,2.1-2,3.4c-0.8,1.3-1.8,2.7-2.9,4.3
	c-1.1,1.5-2.2,3.2-3.3,4.9c-4.6,6.4-7.9,10.7-10,12.9c-2.1,2.2-4.5,3.7-7.1,4.4c-4.2,1.2-8.3,1.6-12.2,1.2
	c-3.9-0.4-7.4-1.8-10.4-4.1c-3.1-2.3-5.5-5.1-7-8.4c-1.5-3.4-3.3-12-5.5-25.6c-2-12.4-3.9-21.4-5.9-27.1c-2-5.7-4.8-10.6-8.3-14.7
	c-4.1-4.8-8.4-8.2-13.1-10.2c-4.7-2-10.7-3-18.1-3l-12.2-0.3l-0.3,31c-0.2,13.6-0.1,22.3,0.1,26.2c0.3,3.9,0.9,6.2,2,7.1
	c2.1,1.7,6.6,2.7,13.3,2.8c6.8,0.2,11.9-0.6,15.5-2.1c4-1.6,6.4-2.2,7-2.1c0.6,0.2,0.5,1.7-0.1,4.7c-0.8,3.8-2.6,7.4-5.7,10.7
	c-3.1,3.4-6.6,5.8-10.7,7.4c-3.7,1.4-6.5,2-8.3,1.9c-1.8-0.1-5.9-1.1-12.3-3c-9.7-2.8-19.7-4.1-30-4c-10.3,0.1-18.6,1.7-25,4.5
	c-7,3.2-10.6,3.5-10.6,1.3c0-0.9,0.3-2.2,0.8-3.9c1.6-3.6,4.7-6.8,9.4-9.6c4.7-2.8,12.4-5.9,23.1-9.6c1.4-0.7,2.1-10.8,2-30.2
	c-0.1-19.5-0.9-29.2-2.5-29.2c-1.2,0-5,1-11.1,3.6c-5.9,2.6-9.1,3.8-9.8,3.1c-1.1-1-1.3-3.1-0.8-6.2c0.5-3.1,1.6-6.3,3.2-9.6
	c2-4.3,5.8-8.9,12-13.7l8.6-6.2V324c0-20.3-0.5-31.1-1.8-32.3c-1.3-1.2-4.8-1.8-10.6-1.8s-10.6,0.7-14.5,2.1
	c-4.4,1.6-6.9,2.1-7.4,1.6c-1.2-1.2,0.4-4.4,4.9-9.7C225.1,278.6,229.4,274.8,233.4,272.6z"/>
<path id="XMLID_125_" class="st0" d="M497.7,274.4c7.6-3.4,11.4-4.5,11.4-3.1c0,0.5-1,2.6-3.2,6.2c-1.9,3.3-3.3,5.9-4.1,7.8
	c-0.8,1.9-1.5,6.4-2.1,13.6c-0.6,7.1-1,15.1-1.2,23.9c-0.2,8.8-0.4,23.8-0.5,45l-1.1,73.9l-4.8,7c-3.2,4.3-7.3,7.8-12.4,10.6
	l-7.7,4.1l-7.4-5.9c-4.6-3.3-8.2-5.1-10.8-5.4c-2.6-0.3-5.5,0.6-8.5,2.8c-2.8,2.1-4.8,2.9-5.8,2.3c-1.3-0.7-1.8-3.8-1.8-9.3
	c0-5.7,1.2-9.8,3.7-12.4c6.5-6.9,11.9-9.3,16.4-7.8c3.3,1.2,5.3,1.3,6.1,0.8c0.9-0.6,1.4-9.3,1.6-26.5c0.2-17.1-0.2-26-1.1-26.7
	c-0.7-0.6-4.1,0.3-10.3,2.8c-7.7,3.2-12,4-12.7,2.8c-0.4-0.7-0.4-2.2,0-4.7c1.4-7.8,6.1-14.1,14.9-19.1l6.7-4.1v-53.7l-4.1-1.6
	c-3.7-1.4-6.5-1.5-8.9-0.4c-2.4,1.1-4.4,3.7-6.1,7.6c-2,4.5-3.4,7-4.6,7.5c-1.1,0.5-2.5-0.6-4.1-3.4c-2.3-4.7-2.9-9.6-1.8-14.7
	c1.1-5.2,3.6-9.6,7.7-13.2c1.6-1.4,3.8-2.2,6.6-2.6c2.8-0.3,9.4-0.5,19.8-0.5c10,0,16.8-0.2,20.2-0.6
	C491.2,276.9,494.5,275.9,497.7,274.4z"/>
<path id="XMLID_124_" class="st0" d="M620.8,278.2c7.6-4.8,12.3-7,14.3-7.2c2.3-0.3,7.2,3.4,14.8,10.9c7.6,7.4,11.9,11.1,13.1,11.1
	c1.1,0,5.3-3.7,12.6-11.1l10.3-11.1c6.9,0.2,13.7,0.3,20.6,0.3l35.7,37.2l0.8,54.8c0.7,36.7,1.7,55.6,2.9,56.8
	c1.2,1.2,4.7,2.8,10.6,4.7c5.6,1.8,8.7,3.3,9,4.9c0.3,1.7-3.3,7.5-10.6,17.3c-4.9,6.7-8.3,10.9-10.2,12.7c-1.9,1.7-4.1,2.5-6.7,2.8
	c-1.1,0.1-2.2,0.1-3.4-0.1c-1.2-0.3-2.5-0.6-3.7-1c-1.2-0.4-2.5-1-3.7-1.8c-1.2-0.8-2.4-1.6-3.4-2.6c-1.1-0.9-2.1-2-3-3.1
	c-1-1.1-1.8-2.4-2.5-3.7c-1.6-2.6-2.6-7-3-13.3c-0.4-6.3-0.8-23.7-1.2-52.3c-0.4-29.3-0.8-46.9-1.2-52.8c-0.4-5.9-1.5-10.3-3.3-13
	c-5.6-9-10.8-12.9-15.6-11.9c-9.5,2.4-14.4,13.3-14.5,32.8c0,9.3,0.6,14.4,1.6,15.5c1.1,1.2,4.5,0.5,10.3-2.2c5.8-2.7,9-3.7,9.8-3.2
	c1,0.6,1,2.8-0.3,7c-1.2,4.1-3,7.7-5,10.9c-2.4,3.6-5.5,6.9-9.8,9.8l-5.5,3.9l-1.1,16.5c-1.2,16.9,0.4,29.7,4.8,38.5l2.6,5.7
	l-10.3,12.9c-7,8.6-11,12.7-11.9,12.7c-1.2-0.1-4.9-3.4-10.4-10.1l-9.1-10.1v-31.8c0-21.2-0.2-31.8-1.3-31.8c-1.1,0-3.6,1-8,3.1
	l-6.3,3.1l-1.5-3.4c-3.2-5.3,0.5-12.3,10.2-20.9l9.9-8.8V339c0-11.7-0.8-18.8-2-21.2c-1.3-2.5-3.7-5-6.4-7.9
	c-2.7-2.8-4.8-4.3-5.9-4.3c-1.1,0-3.2,1.4-6,4.3c-2.8,2.8-4.8,5.5-6,7.9c-1.3,2.6-1.8,23.6-1.8,63v59.4l-11,11.6
	c-7,7.6-11,11.4-11.7,11.4c-0.7,0-5.1-1.9-13-5.9c-5.7-2.9-9.3-4.6-10.8-4.9c-1.6-0.3-3.3,0.2-5,1.5c-3,1.9-5.2,2.3-6.6,1.3
	c-1.4-1-2.1-3.6-2.1-7.8c0-2.1,0.2-3.7,0.5-5c0.4-1.3,0.9-2.5,1.7-3.7c0.8-1.2,2-2.9,3.8-4.9c1.9-2.1,3.4-3.5,4.4-4.3
	c1-0.8,2.2-1.3,3.7-1.5c1.5-0.3,3.2-0.2,5.2,0.1l7.4,0.3l0.5-23c0.2-15.3-0.1-23.6-0.5-24.8c-0.4-1-1.3-1.3-2.9-0.9
	c-1.6,0.4-3.2,1.2-4.9,2.2c-1.7,1-3.3,1.4-4.9,1.2c-1.6-0.3-2.6-1.6-3.2-4c-1.4-6.7,2-13.3,10.3-19.6l6.6-5.2L587,331
	c-0.2-11.2-0.5-18.1-0.9-20.8c-0.4-2.7-1.5-4.9-3.3-6.6c-2.6-2.9-5.6-4.6-9-5c-3.3-0.4-8.9,0.2-16.6,1.7c-9.2,1.8-14,2.3-14.5,1.8
	c-0.7-0.7-0.7-2,0.1-3.9c0.8-1.9,2-4,3.6-6.2c1.6-2.2,3.6-4.4,5.9-6.5c2.4-2.1,4.5-3.6,6.5-4.7c3.7-1.9,9.2-2.8,16.5-2.6
	c7.3,0.2,14.7,1.3,22.1,3.4l12.2,3.6L620.8,278.2z"/>
<path id="XMLID_123_" class="st0" d="M856,275.1c7-3.8,18.8-3.6,35.4,0.5c8.1,2.1,17.4,3.5,27.7,4.4l14.5,1l-0.5,5.4
	c-0.5,6.9-4.6,11.6-12.3,14.2c-7.7,2.6-20.2,3.4-37.7,2.6c-8.5-0.4-14-0.4-16.5-0.1c-2.6,0.3-4.3,0.9-5.2,1.9
	c-1.6,1.7-2.3,8.6-2.2,20.5c0.1,12,0.9,18.6,2.2,20c1.3,1.3,10.8,3.9,28.8,7c17.8,3.1,27,5,27.5,6.2c0.6,1.4-1.5,5-6.2,10.9
	c-4.7,5.9-7.7,8.8-9.1,8.8c-0.2,0-3.7-0.5-10.6-1.5c-6.9-1-13.7-1.9-20.5-2.7c-6.8-0.8-10.4-1-10.7-0.6c-0.5,0.5-0.8,7.5-0.8,20.9
	c0,9,0.2,14.7,0.5,17.2c0.4,2.5,1.1,4,2.4,4.5c1.9,1,11.3,3.7,28,7.8c16.5,4,29.7,5.9,39.4,5.9c9.3,0,14,0.3,14,1
	c0,0.5-2.9,4.6-8.7,12.1c-5.8,7.6-10,12.8-12.7,15.8l-3.2,3.4l-13.2-6.2c-29.6-14-60.3-14.1-92.2-0.5c-4.9,2.1-8.4,3.3-10.3,3.7
	c-1.9,0.4-3.1,0.2-3.4-0.6c-0.5-1.2,1.4-4.5,5.8-9.8c4.4-5.3,8.7-9.5,12.9-12.7c4.6-3.4,7.7-7.6,9.2-12.5c1.6-4.9,2.4-12.9,2.4-23.9
	c0-12.7-0.4-19.5-1.3-20.2c-1-0.7-4.9,0-11.6,2.1c-6.9,2.1-11.1,2.5-12.7,1.3c-1.4-1-2.1-1.9-2.1-2.6c0-0.9,4.9-5.4,14.8-13.7
	l14.5-12.4l-0.8-53.7l-5-3.9c-2.1-1.9-4-3-5.7-3.4c-1.7-0.3-5.2-0.2-10.7,0.3c-4.9,0.4-8.2,0.4-9.6,0.3c-1.5-0.2-2.2-0.8-2.2-1.8
	c0-2.2,1.4-4.9,4.2-8c2.8-3.1,6-5.4,9.5-7c3.9-1.7,7.6-2.7,11.2-2.8c3.6-0.2,9.2,0.6,16.8,1.8c4.7,0.8,8.1,1,9.9,0.9
	C851.9,276.7,853.9,276.2,856,275.1z"/>
<path id="XMLID_119_" class="st0" d="M121.8,550.6c-1.4-2-2.5-3.1-3.8-3.2c-1.3-0.1-3.4,0.6-7.1,2.2l-4.9,2.3v85.3l-10.2,8.5
	c-6.5,5.5-9.6,8.7-8.7,9.6c0.9,0.9,6.8,2.8,18.1,5.9c11.3,3.1,17.2,4.4,17.9,3.9c0.9-0.7,1.3-19.3,1.3-55.8c0-23.8-0.1-39.1-0.4-46
	C123.8,556.4,122.9,552.2,121.8,550.6z M91.1,505.1c6.3-1.5,12.8-2,19.4-1.9c6.6,0.1,9.9,1,9.9,2.7c0,1.2-1.4,2.8-4.1,4.7
	c-2.7,1.9-8.2,5.1-16.3,9.6c-8.5,4.7-16,10.7-22.6,18.2s-11.8,15.6-15.6,24.3c-3.8,8.7-6.4,17.6-7.8,26.6c-1.4,9-1.1,17.8,0.9,26.2
	c2,8.4,5.6,15.8,10.7,22l3.5,3.9c3.9-3.6,7.7-7.2,11.7-10.9V616c0-9.5-0.3-14.7-1.1-15.5c-0.6-0.6-3.2,0.7-7.2,3.9
	c-3.7,2.9-6.3,4.2-7.7,3.7c-1.4-0.4-2.1-2.6-2.1-6.6c0-2.4,0.5-4.4,1.4-6.1c1-1.6,3.2-4,6.7-7.1l7.9-7.2c0.4-13.1,0.6-26.3,0.8-39.5
	l5-1c9.5-2.2,15.6-3.9,18.4-5c2.7-1.1,5.6-3.2,8.6-6.3l6.1-6.5l12.2,2.1c7.9,1.4,14.5,1.7,19.7,1c5.2-0.7,11.2-2.5,17.8-5.4
	c7.2-3.2,11-4.9,11.4-4.9c0.5,0,0.8,1.2,0.8,3.6c0,2.8-1.5,6.1-4.4,10.1c-2.9,4-6.8,8-11.8,12.1c-4.9,4.1-10,7.8-15.8,10.9l-4.7,2.6
	v51.7c0,34.3,0.1,51.7,1,52.2c0.5,0.3,4.7-0.9,12.9-3.9c8.2-2.9,12.4-4.2,12.7-3.9c0.7,0.9-1.2,4.3-5.7,10.2
	c-4.5,5.9-9,11-13.6,15.1c-13,11.7-28.7,17.1-46.9,16.1c-18.2-0.9-36-8.1-53.3-21.6c-13.4-10.5-22.7-24.5-28-42
	c-5.3-17.5-5.9-35.3-1.7-53.5c4.1-18.2,12.6-33.4,25.2-45.6c5.5-5.5,12.3-10.5,20.6-14.9C74.6,510.4,82.8,507.1,91.1,505.1z"/>
<path id="XMLID_116_" class="st0" d="M324.6,558.4c-0.4-1.7-3.9-8-10-18.9c-6.2-10.9-9.9-16.1-11.1-16c-1.2,0.1-4.7,2.9-12.1,8.8
	l-10.3,8.5v18.1c0,11.9-0.5,18.1,0,18.6c0.9,0.7,5.6,0.2,15.1-1.4c9.4-1.6,15.1-3.1,17.4-4.3c3.3-1.7,6.1-3.9,8.4-6.6
	C324.1,562.5,325,560.2,324.6,558.4z M233.4,498.2c1.6-0.9,6.9-1.4,16-1.7c9.1-0.3,18.2,0,25.8,0.9l10.8,1v5.7c0,4.3-1.1,6.6-1.1,7
	c0.2,0.9,3.1-1.4,9.6-6.7c4.4-3.6,7.4-5.9,9.3-6.7c1.9-0.9,4.6-1.3,8.1-1.3c2.3,0,3.8,0,4.7,0.1c0.9,0.1,2,0.6,3.4,1.4
	c1.4,0.9,2.7,1.9,3.8,3.1c1.1,1.2,3,3.4,5.7,6.7c3.9,4.3,7.4,9.1,10.6,14.3c3.2,5.3,5.9,10.5,8.2,15.8c2.3,5.3,4.1,10.4,5.4,15.5
	c1.3,5.1,2,9.8,2,14.1c0,3.4-0.5,5.9-1.5,7.5c-1,1.6-3.6,4.3-7.8,8.3l-8.7,8.3l6.3,7.5c5.6,6.7,10,13.7,13.1,20.9
	c3.1,7.2,5,15.9,6.5,25.8c0.8,5,1.6,8.7,2.2,11.2c0.6,2.5,1.4,4.4,2.4,5.8c1,1.4,2.4,2.8,4.4,4.1c1.6,1.1,3,1.6,4.2,1.6
	c1.2,0,3.4-0.5,6.6-1.6c7.2-2.4,12.7-3.3,16.4-2.6c-0.5,1-1.1,2-1.6,3c-0.5,0.9-1.2,2.1-2,3.4c-0.8,1.3-1.8,2.7-2.9,4.3
	c-1.1,1.5-2.2,3.2-3.3,4.9c-4.6,6.4-7.9,10.7-10,12.9c-2.1,2.2-4.5,3.7-7.1,4.4c-4.2,1.2-8.3,1.6-12.2,1.2
	c-3.9-0.4-7.4-1.8-10.4-4.1c-3.1-2.3-5.5-5.1-7-8.4c-1.5-3.4-3.3-12-5.5-25.6c-2-12.4-3.9-21.4-5.9-27.1c-2-5.7-4.8-10.6-8.3-14.7
	c-4.1-4.8-8.4-8.2-13.1-10.2c-4.7-2-10.7-3-18.1-3l-12.2-0.3l-0.3,31c-0.2,13.6-0.1,22.3,0.1,26.2c0.3,3.9,0.9,6.2,2,7.1
	c2.1,1.7,6.6,2.7,13.3,2.8c6.8,0.2,11.9-0.6,15.5-2.1c4-1.6,6.4-2.2,7-2.1c0.6,0.2,0.5,1.7-0.1,4.7c-0.8,3.8-2.6,7.4-5.7,10.7
	c-3.1,3.4-6.6,5.8-10.7,7.4c-3.7,1.4-6.5,2-8.3,1.9c-1.8-0.1-5.9-1.1-12.3-3c-9.7-2.8-19.7-4.1-30-4c-10.3,0.1-18.6,1.7-25,4.5
	c-7,3.2-10.6,3.5-10.6,1.3c0-0.9,0.3-2.2,0.8-3.9c1.6-3.6,4.7-6.8,9.4-9.6c4.7-2.8,12.4-5.9,23.1-9.6c1.4-0.7,2.1-10.8,2-30.2
	c-0.1-19.5-0.9-29.2-2.5-29.2c-1.2,0-5,1-11.1,3.6c-5.9,2.6-9.1,3.8-9.8,3.1c-1.1-1-1.3-3.1-0.8-6.2c0.5-3.1,1.6-6.3,3.2-9.6
	c2-4.3,5.8-8.9,12-13.7l8.6-6.2v-30.5c0-20.3-0.5-31.1-1.8-32.3c-1.3-1.2-4.8-1.8-10.6-1.8s-10.6,0.7-14.5,2.1
	c-4.4,1.6-6.9,2.1-7.4,1.6c-1.2-1.2,0.4-4.4,4.9-9.7C225.1,504.1,229.4,500.4,233.4,498.2z"/>
<path id="XMLID_115_" class="st0" d="M497.7,500c7.6-3.4,11.4-4.5,11.4-3.1c0,0.5-1,2.6-3.2,6.2c-1.9,3.3-3.3,5.9-4.1,7.8
	c-0.8,1.9-1.5,6.4-2.1,13.6c-0.6,7.1-1,15.1-1.2,23.9c-0.2,8.8-0.4,23.8-0.5,45l-1.1,73.9l-4.8,7c-3.2,4.3-7.3,7.8-12.4,10.6
	l-7.7,4.1l-7.4-5.9c-4.6-3.3-8.2-5.1-10.8-5.4c-2.6-0.3-5.5,0.6-8.5,2.8c-2.8,2.1-4.8,2.9-5.8,2.3c-1.3-0.7-1.8-3.8-1.8-9.3
	c0-5.7,1.2-9.8,3.7-12.4c6.5-6.9,11.9-9.3,16.4-7.8c3.3,1.2,5.3,1.3,6.1,0.8c0.9-0.6,1.4-9.3,1.6-26.5c0.2-17.1-0.2-26-1.1-26.7
	c-0.7-0.6-4.1,0.3-10.3,2.8c-7.7,3.2-12,4-12.7,2.8c-0.4-0.7-0.4-2.2,0-4.7c1.4-7.8,6.1-14.1,14.9-19.1l6.7-4.1v-53.7l-4.1-1.6
	c-3.7-1.4-6.5-1.5-8.9-0.4c-2.4,1.1-4.4,3.7-6.1,7.6c-2,4.5-3.4,7-4.6,7.5c-1.1,0.5-2.5-0.6-4.1-3.4c-2.3-4.7-2.9-9.6-1.8-14.7
	c1.1-5.2,3.6-9.6,7.7-13.2c1.6-1.4,3.8-2.2,6.6-2.6c2.8-0.3,9.4-0.5,19.8-0.5c10,0,16.8-0.2,20.2-0.6
	C491.2,502.5,494.5,501.5,497.7,500z"/>
<path id="XMLID_114_" class="st0" d="M620.8,503.8c7.6-4.8,12.3-7,14.3-7.2c2.3-0.3,7.2,3.4,14.8,10.9c7.6,7.4,11.9,11.1,13.1,11.1
	c1.1,0,5.3-3.7,12.6-11.1l10.3-11.1c6.9,0.2,13.7,0.3,20.6,0.3l35.7,37.2l0.8,54.8c0.7,36.7,1.7,55.6,2.9,56.8
	c1.2,1.2,4.7,2.8,10.6,4.7c5.6,1.8,8.7,3.3,9,4.9c0.3,1.7-3.3,7.5-10.6,17.3c-4.9,6.7-8.3,10.9-10.2,12.7c-1.9,1.7-4.1,2.5-6.7,2.8
	c-1.1,0.1-2.2,0.1-3.4-0.1c-1.2-0.3-2.5-0.6-3.7-1c-1.2-0.4-2.5-1-3.7-1.8c-1.2-0.8-2.4-1.6-3.4-2.6c-1.1-0.9-2.1-2-3-3.1
	c-1-1.1-1.8-2.4-2.5-3.7c-1.6-2.6-2.6-7-3-13.3c-0.4-6.3-0.8-23.7-1.2-52.3c-0.4-29.3-0.8-46.9-1.2-52.8c-0.4-5.9-1.5-10.3-3.3-13
	c-5.6-9-10.8-12.9-15.6-11.9c-9.5,2.4-14.4,13.3-14.5,32.8c0,9.3,0.6,14.4,1.6,15.5c1.1,1.2,4.5,0.5,10.3-2.2c5.8-2.7,9-3.7,9.8-3.2
	c1,0.6,1,2.8-0.3,7c-1.2,4.1-3,7.7-5,10.9c-2.4,3.6-5.5,6.9-9.8,9.8l-5.5,3.9l-1.1,16.5c-1.2,16.9,0.4,29.7,4.8,38.5l2.6,5.7
	L676.3,680c-7,8.6-11,12.7-11.9,12.7c-1.2-0.1-4.9-3.4-10.4-10.1l-9.1-10.1v-31.8c0-21.2-0.2-31.8-1.3-31.8c-1.1,0-3.6,1-8,3.1
	l-6.3,3.1l-1.5-3.4c-3.2-5.3,0.5-12.3,10.2-20.9l9.9-8.8v-17.6c0-11.7-0.8-18.8-2-21.2c-1.3-2.5-3.7-5-6.4-7.9
	c-2.7-2.8-4.8-4.3-5.9-4.3c-1.1,0-3.2,1.4-6,4.3c-2.8,2.8-4.8,5.5-6,7.9c-1.3,2.6-1.8,23.6-1.8,63v59.4l-11,11.6
	c-7,7.6-11,11.4-11.7,11.4c-0.7,0-5.1-1.9-13-5.9c-5.7-2.9-9.3-4.6-10.8-4.9c-1.6-0.3-3.3,0.2-5,1.5c-3,1.9-5.2,2.3-6.6,1.3
	c-1.4-1-2.1-3.6-2.1-7.8c0-2.1,0.2-3.7,0.5-5c0.4-1.3,0.9-2.5,1.7-3.7c0.8-1.2,2-2.9,3.8-4.9c1.9-2.1,3.4-3.5,4.4-4.3
	c1-0.8,2.2-1.3,3.7-1.5c1.5-0.3,3.2-0.2,5.2,0.1l7.4,0.3l0.5-23c0.2-15.3-0.1-23.6-0.5-24.8c-0.4-1-1.3-1.3-2.9-0.9
	c-1.6,0.4-3.2,1.2-4.9,2.2c-1.7,1-3.3,1.4-4.9,1.2c-1.6-0.3-2.6-1.6-3.2-4c-1.4-6.7,2-13.3,10.3-19.6l6.6-5.2l-0.5-23.3
	c-0.2-11.2-0.5-18.1-0.9-20.8c-0.4-2.7-1.5-4.9-3.3-6.6c-2.6-2.9-5.6-4.6-9-5c-3.3-0.4-8.9,0.2-16.6,1.7c-9.2,1.8-14,2.3-14.5,1.8
	c-0.7-0.7-0.7-2,0.1-3.9c0.8-1.9,2-4,3.6-6.2c1.6-2.2,3.6-4.4,5.9-6.5c2.4-2.1,4.5-3.6,6.5-4.7c3.7-1.9,9.2-2.8,16.5-2.6
	c7.3,0.2,14.7,1.3,22.1,3.4l12.2,3.6L620.8,503.8z"/>
<path id="XMLID_113_" class="st0" d="M856,500.7c7-3.8,18.8-3.6,35.4,0.5c8.1,2.1,17.4,3.5,27.7,4.4l14.5,1l-0.5,5.4
	c-0.5,6.9-4.6,11.6-12.3,14.2c-7.7,2.6-20.2,3.4-37.7,2.6c-8.5-0.4-14-0.4-16.5-0.1c-2.6,0.3-4.3,0.9-5.2,1.9
	c-1.6,1.7-2.3,8.6-2.2,20.5c0.1,12,0.9,18.6,2.2,20c1.3,1.3,10.8,3.9,28.8,7c17.8,3.1,27,5,27.5,6.2c0.6,1.4-1.5,5-6.2,10.9
	c-4.7,5.9-7.7,8.8-9.1,8.8c-0.2,0-3.7-0.5-10.6-1.5c-6.9-1-13.7-1.9-20.5-2.7c-6.8-0.8-10.4-1-10.7-0.6c-0.5,0.5-0.8,7.5-0.8,20.9
	c0,9,0.2,14.7,0.5,17.2c0.4,2.5,1.1,4,2.4,4.5c1.9,1,11.3,3.7,28,7.8c16.5,4,29.7,5.9,39.4,5.9c9.3,0,14,0.3,14,1
	c0,0.5-2.9,4.6-8.7,12.1c-5.8,7.6-10,12.8-12.7,15.8l-3.2,3.4l-13.2-6.2c-29.6-14-60.3-14.1-92.2-0.5c-4.9,2.1-8.4,3.3-10.3,3.7
	c-1.9,0.4-3.1,0.2-3.4-0.6c-0.5-1.2,1.4-4.5,5.8-9.8c4.4-5.3,8.7-9.5,12.9-12.7c4.6-3.4,7.7-7.6,9.2-12.5c1.6-4.9,2.4-12.9,2.4-23.9
	c0-12.7-0.4-19.5-1.3-20.2c-1-0.7-4.9,0-11.6,2.1c-6.9,2.1-11.1,2.5-12.7,1.3c-1.4-1-2.1-1.9-2.1-2.6c0-0.9,4.9-5.4,14.8-13.7
	l14.5-12.4l-0.8-53.7l-5-3.9c-2.1-1.9-4-3-5.7-3.4c-1.7-0.3-5.2-0.2-10.7,0.3c-4.9,0.4-8.2,0.4-9.6,0.3c-1.5-0.2-2.2-0.8-2.2-1.8
	c0-2.2,1.4-4.9,4.2-8c2.8-3.1,6-5.4,9.5-7c3.9-1.7,7.6-2.7,11.2-2.8c3.6-0.2,9.2,0.6,16.8,1.8c4.7,0.8,8.1,1,9.9,0.9
	C851.9,502.3,853.9,501.8,856,500.7z"/>
<path id="XMLID_109_" class="st0" d="M121.8,771.8c-1.4-2-2.5-3.1-3.8-3.2c-1.3-0.1-3.4,0.6-7.1,2.2l-4.9,2.3v85.3l-10.2,8.5
	c-6.5,5.5-9.6,8.7-8.7,9.6c0.9,0.9,6.8,2.8,18.1,5.9c11.3,3.1,17.2,4.4,17.9,3.9c0.9-0.7,1.3-19.3,1.3-55.8c0-23.8-0.1-39.1-0.4-46
	C123.8,777.5,122.9,773.4,121.8,771.8z M91.1,726.3c6.3-1.5,12.8-2,19.4-1.9c6.6,0.1,9.9,1,9.9,2.7c0,1.2-1.4,2.8-4.1,4.7
	c-2.7,1.9-8.2,5.1-16.3,9.6c-8.5,4.7-16,10.7-22.6,18.2s-11.8,15.6-15.6,24.3c-3.8,8.7-6.4,17.6-7.8,26.6c-1.4,9-1.1,17.8,0.9,26.2
	c2,8.4,5.6,15.8,10.7,22l3.5,3.9c3.9-3.6,7.7-7.2,11.7-10.9v-14.5c0-9.5-0.3-14.7-1.1-15.5c-0.6-0.6-3.2,0.7-7.2,3.9
	c-3.7,2.9-6.3,4.2-7.7,3.7c-1.4-0.4-2.1-2.6-2.1-6.6c0-2.4,0.5-4.4,1.4-6.1c1-1.6,3.2-4,6.7-7.1l7.9-7.2c0.4-13.1,0.6-26.3,0.8-39.5
	l5-1c9.5-2.2,15.6-3.9,18.4-5c2.7-1.1,5.6-3.2,8.6-6.3l6.1-6.5l12.2,2.1c7.9,1.4,14.5,1.7,19.7,1c5.2-0.7,11.2-2.5,17.8-5.4
	c7.2-3.2,11-4.9,11.4-4.9c0.5,0,0.8,1.2,0.8,3.6c0,2.8-1.5,6.1-4.4,10.1c-2.9,4-6.8,8-11.8,12.1c-4.9,4.1-10,7.8-15.8,10.9l-4.7,2.6
	v51.7c0,34.3,0.1,51.7,1,52.2c0.5,0.3,4.7-0.9,12.9-3.9c8.2-2.9,12.4-4.2,12.7-3.9c0.7,0.9-1.2,4.3-5.7,10.2
	c-4.5,5.9-9,11-13.6,15.1c-13,11.7-28.7,17.1-46.9,16.1c-18.2-0.9-36-8.1-53.3-21.6c-13.4-10.5-22.7-24.5-28-42
	c-5.3-17.5-5.9-35.3-1.7-53.5c4.1-18.2,12.6-33.4,25.2-45.6c5.5-5.5,12.3-10.5,20.6-14.9C74.6,731.6,82.8,728.2,91.1,726.3z"/>
<path id="XMLID_106_" class="st0" d="M324.6,779.5c-0.4-1.7-3.9-8-10-18.9c-6.2-10.9-9.9-16.1-11.1-16c-1.2,0.1-4.7,2.9-12.1,8.8
	l-10.3,8.5V780c0,11.9-0.5,18.1,0,18.6c0.9,0.7,5.6,0.2,15.1-1.4c9.4-1.6,15.1-3.1,17.4-4.3c3.3-1.7,6.1-3.9,8.4-6.6
	C324.1,783.7,325,781.4,324.6,779.5z M233.4,719.3c1.6-0.9,6.9-1.4,16-1.7c9.1-0.3,18.2,0,25.8,0.9l10.8,1v5.7c0,4.3-1.1,6.6-1.1,7
	c0.2,0.9,3.1-1.4,9.6-6.7c4.4-3.6,7.4-5.9,9.3-6.7c1.9-0.9,4.6-1.3,8.1-1.3c2.3,0,3.8,0,4.7,0.1c0.9,0.1,2,0.6,3.4,1.4
	c1.4,0.9,2.7,1.9,3.8,3.1c1.1,1.2,3,3.4,5.7,6.7c3.9,4.3,7.4,9.1,10.6,14.3c3.2,5.3,5.9,10.5,8.2,15.8c2.3,5.3,4.1,10.4,5.4,15.5
	c1.3,5.1,2,9.8,2,14.1c0,3.4-0.5,5.9-1.5,7.5c-1,1.6-3.6,4.3-7.8,8.3l-8.7,8.3l6.3,7.5c5.6,6.7,10,13.7,13.1,20.9
	c3.1,7.2,5,15.9,6.5,25.8c0.8,5,1.6,8.7,2.2,11.2c0.6,2.5,1.4,4.4,2.4,5.8c1,1.4,2.4,2.8,4.4,4.1c1.6,1.1,3,1.6,4.2,1.6
	c1.2,0,3.4-0.5,6.6-1.6c7.2-2.4,12.7-3.3,16.4-2.6c-0.5,1-1.1,2-1.6,3c-0.5,0.9-1.2,2.1-2,3.4c-0.8,1.3-1.8,2.7-2.9,4.3
	c-1.1,1.5-2.2,3.2-3.3,4.9c-4.6,6.4-7.9,10.7-10,12.9c-2.1,2.2-4.5,3.7-7.1,4.4c-4.2,1.2-8.3,1.6-12.2,1.2
	c-3.9-0.4-7.4-1.8-10.4-4.1c-3.1-2.3-5.5-5.1-7-8.4c-1.5-3.4-3.3-12-5.5-25.6c-2-12.4-3.9-21.4-5.9-27.1c-2-5.7-4.8-10.6-8.3-14.7
	c-4.1-4.8-8.4-8.2-13.1-10.2c-4.7-2-10.7-3-18.1-3l-12.2-0.3l-0.3,31c-0.2,13.6-0.1,22.3,0.1,26.2c0.3,3.9,0.9,6.2,2,7.1
	c2.1,1.7,6.6,2.7,13.3,2.8c6.8,0.2,11.9-0.6,15.5-2.1c4-1.6,6.4-2.2,7-2.1c0.6,0.2,0.5,1.7-0.1,4.7c-0.8,3.8-2.6,7.4-5.7,10.7
	c-3.1,3.4-6.6,5.8-10.7,7.4c-3.7,1.4-6.5,2-8.3,1.9c-1.8-0.1-5.9-1.1-12.3-3c-9.7-2.8-19.7-4.1-30-4c-10.3,0.1-18.6,1.7-25,4.5
	c-7,3.2-10.6,3.5-10.6,1.3c0-0.9,0.3-2.2,0.8-3.9c1.6-3.6,4.7-6.8,9.4-9.6c4.7-2.8,12.4-5.9,23.1-9.6c1.4-0.7,2.1-10.8,2-30.2
	c-0.1-19.5-0.9-29.2-2.5-29.2c-1.2,0-5,1-11.1,3.6c-5.9,2.6-9.1,3.8-9.8,3.1c-1.1-1-1.3-3.1-0.8-6.2c0.5-3.1,1.6-6.3,3.2-9.6
	c2-4.3,5.8-8.9,12-13.7l8.6-6.2v-30.5c0-20.3-0.5-31.1-1.8-32.3c-1.3-1.2-4.8-1.8-10.6-1.8s-10.6,0.7-14.5,2.1
	c-4.4,1.6-6.9,2.1-7.4,1.6c-1.2-1.2,0.4-4.4,4.9-9.7C225.1,725.3,229.4,721.6,233.4,719.3z"/>
<path id="XMLID_105_" class="st0" d="M497.7,721.1c7.6-3.4,11.4-4.5,11.4-3.1c0,0.5-1,2.6-3.2,6.2c-1.9,3.3-3.3,5.9-4.1,7.8
	c-0.8,1.9-1.5,6.4-2.1,13.6c-0.6,7.1-1,15.1-1.2,23.9c-0.2,8.8-0.4,23.8-0.5,45l-1.1,73.9l-4.8,7c-3.2,4.3-7.3,7.8-12.4,10.6
	L472,910l-7.4-5.9c-4.6-3.3-8.2-5.1-10.8-5.4c-2.6-0.3-5.5,0.6-8.5,2.8c-2.8,2.1-4.8,2.9-5.8,2.3c-1.3-0.7-1.8-3.8-1.8-9.3
	c0-5.7,1.2-9.8,3.7-12.4c6.5-6.9,11.9-9.3,16.4-7.8c3.3,1.2,5.3,1.3,6.1,0.8c0.9-0.6,1.4-9.3,1.6-26.5c0.2-17.1-0.2-26-1.1-26.7
	c-0.7-0.6-4.1,0.3-10.3,2.8c-7.7,3.2-12,4-12.7,2.8c-0.4-0.7-0.4-2.2,0-4.7c1.4-7.8,6.1-14.1,14.9-19.1l6.7-4.1v-53.7l-4.1-1.6
	c-3.7-1.4-6.5-1.5-8.9-0.4c-2.4,1.1-4.4,3.7-6.1,7.6c-2,4.5-3.4,7-4.6,7.5c-1.1,0.5-2.5-0.6-4.1-3.4c-2.3-4.7-2.9-9.6-1.8-14.7
	c1.1-5.2,3.6-9.6,7.7-13.2c1.6-1.4,3.8-2.2,6.6-2.6c2.8-0.3,9.4-0.5,19.8-0.5c10,0,16.8-0.2,20.2-0.6
	C491.2,723.7,494.5,722.7,497.7,721.1z"/>
<path id="XMLID_104_" class="st0" d="M620.8,725c7.6-4.8,12.3-7,14.3-7.2c2.3-0.3,7.2,3.4,14.8,10.9c7.6,7.4,11.9,11.1,13.1,11.1
	c1.1,0,5.3-3.7,12.6-11.1l10.3-11.1c6.9,0.2,13.7,0.3,20.6,0.3l35.7,37.2l0.8,54.8c0.7,36.7,1.7,55.6,2.9,56.8
	c1.2,1.2,4.7,2.8,10.6,4.7c5.6,1.8,8.7,3.3,9,4.9c0.3,1.7-3.3,7.5-10.6,17.3c-4.9,6.7-8.3,10.9-10.2,12.7c-1.9,1.7-4.1,2.5-6.7,2.8
	c-1.1,0.1-2.2,0.1-3.4-0.1c-1.2-0.3-2.5-0.6-3.7-1c-1.2-0.4-2.5-1-3.7-1.8c-1.2-0.8-2.4-1.6-3.4-2.6c-1.1-0.9-2.1-2-3-3.1
	c-1-1.1-1.8-2.4-2.5-3.7c-1.6-2.6-2.6-7-3-13.3c-0.4-6.3-0.8-23.7-1.2-52.3c-0.4-29.3-0.8-46.9-1.2-52.8c-0.4-5.9-1.5-10.3-3.3-13
	c-5.6-9-10.8-12.9-15.6-11.9c-9.5,2.4-14.4,13.3-14.5,32.8c0,9.3,0.6,14.4,1.6,15.5c1.1,1.2,4.5,0.5,10.3-2.2c5.8-2.7,9-3.7,9.8-3.2
	c1,0.6,1,2.8-0.3,7c-1.2,4.1-3,7.7-5,10.9c-2.4,3.6-5.5,6.9-9.8,9.8l-5.5,3.9l-1.1,16.5c-1.2,16.9,0.4,29.7,4.8,38.5l2.6,5.7
	l-10.3,12.9c-7,8.6-11,12.7-11.9,12.7c-1.2-0.1-4.9-3.4-10.4-10.1l-9.1-10.1v-31.8c0-21.2-0.2-31.8-1.3-31.8c-1.1,0-3.6,1-8,3.1
	l-6.3,3.1l-1.5-3.4c-3.2-5.3,0.5-12.3,10.2-20.9l9.9-8.8v-17.6c0-11.7-0.8-18.8-2-21.2c-1.3-2.5-3.7-5-6.4-7.9
	c-2.7-2.8-4.8-4.3-5.9-4.3c-1.1,0-3.2,1.4-6,4.3c-2.8,2.8-4.8,5.5-6,7.9c-1.3,2.6-1.8,23.6-1.8,63V887l-11,11.6
	c-7,7.6-11,11.4-11.7,11.4c-0.7,0-5.1-1.9-13-5.9c-5.7-2.9-9.3-4.6-10.8-4.9c-1.6-0.3-3.3,0.2-5,1.5c-3,1.9-5.2,2.3-6.6,1.3
	c-1.4-1-2.1-3.6-2.1-7.8c0-2.1,0.2-3.7,0.5-5c0.4-1.3,0.9-2.5,1.7-3.7c0.8-1.2,2-2.9,3.8-4.9c1.9-2.1,3.4-3.5,4.4-4.3
	c1-0.8,2.2-1.3,3.7-1.5c1.5-0.3,3.2-0.2,5.2,0.1l7.4,0.3l0.5-23c0.2-15.3-0.1-23.6-0.5-24.8c-0.4-1-1.3-1.3-2.9-0.9
	c-1.6,0.4-3.2,1.2-4.9,2.2c-1.7,1-3.3,1.4-4.9,1.2c-1.6-0.3-2.6-1.6-3.2-4c-1.4-6.7,2-13.3,10.3-19.6l6.6-5.2l-0.5-23.3
	c-0.2-11.2-0.5-18.1-0.9-20.8c-0.4-2.7-1.5-4.9-3.3-6.6c-2.6-2.9-5.6-4.6-9-5c-3.3-0.4-8.9,0.2-16.6,1.7c-9.2,1.8-14,2.3-14.5,1.8
	c-0.7-0.7-0.7-2,0.1-3.9c0.8-1.9,2-4,3.6-6.2c1.6-2.2,3.6-4.4,5.9-6.5c2.4-2.1,4.5-3.6,6.5-4.7c3.7-1.9,9.2-2.8,16.5-2.6
	c7.3,0.2,14.7,1.3,22.1,3.4l12.2,3.6L620.8,725z"/>
<path id="XMLID_103_" class="st0" d="M856,721.9c7-3.8,18.8-3.6,35.4,0.5c8.1,2.1,17.4,3.5,27.7,4.4l14.5,1l-0.5,5.4
	c-0.5,6.9-4.6,11.6-12.3,14.2c-7.7,2.6-20.2,3.4-37.7,2.6c-8.5-0.4-14-0.4-16.5-0.1c-2.6,0.3-4.3,0.9-5.2,1.9
	c-1.6,1.7-2.3,8.6-2.2,20.5c0.1,12,0.9,18.6,2.2,20c1.3,1.3,10.8,3.9,28.8,7c17.8,3.1,27,5,27.5,6.2c0.6,1.4-1.5,5-6.2,10.9
	c-4.7,5.9-7.7,8.8-9.1,8.8c-0.2,0-3.7-0.5-10.6-1.5c-6.9-1-13.7-1.9-20.5-2.7c-6.8-0.8-10.4-1-10.7-0.6c-0.5,0.5-0.8,7.5-0.8,20.9
	c0,9,0.2,14.7,0.5,17.2c0.4,2.5,1.1,4,2.4,4.5c1.9,1,11.3,3.7,28,7.8c16.5,4,29.7,5.9,39.4,5.9c9.3,0,14,0.3,14,1
	c0,0.5-2.9,4.6-8.7,12.1c-5.8,7.6-10,12.8-12.7,15.8l-3.2,3.4l-13.2-6.2c-29.6-14-60.3-14.1-92.2-0.5c-4.9,2.1-8.4,3.3-10.3,3.7
	c-1.9,0.4-3.1,0.2-3.4-0.6c-0.5-1.2,1.4-4.5,5.8-9.8c4.4-5.3,8.7-9.5,12.9-12.7c4.6-3.4,7.7-7.6,9.2-12.5c1.6-4.9,2.4-12.9,2.4-23.9
	c0-12.7-0.4-19.5-1.3-20.2c-1-0.7-4.9,0-11.6,2.1c-6.9,2.1-11.1,2.5-12.7,1.3c-1.4-1-2.1-1.9-2.1-2.6c0-0.9,4.9-5.4,14.8-13.7
	l14.5-12.4l-0.8-53.7l-5-3.9c-2.1-1.9-4-3-5.7-3.4c-1.7-0.3-5.2-0.2-10.7,0.3c-4.9,0.4-8.2,0.4-9.6,0.3c-1.5-0.2-2.2-0.8-2.2-1.8
	c0-2.2,1.4-4.9,4.2-8c2.8-3.1,6-5.4,9.5-7c3.9-1.7,7.6-2.7,11.2-2.8c3.6-0.2,9.2,0.6,16.8,1.8c4.7,0.8,8.1,1,9.9,0.9
	C851.9,723.5,853.9,722.9,856,721.9z"/>
</svg>
